<?xml version="1.0" encoding="UTF-8"?>
<svg width="12px" height="15px" viewBox="0 0 12 15" version="1.1" xmlns="http://www.w3.org/2000/svg" xmlns:xlink="http://www.w3.org/1999/xlink">
    <title>TL_08</title>
    <g id="页面-1" stroke="none" stroke-width="1" fill="none" fill-rule="evenodd">
        <g id="切图" transform="translate(-1227.000000, -629.000000)" fill="#00FF85" fill-rule="nonzero">
            <g id="TL_08" transform="translate(1227.742118, 629.045686)">
                <path d="M9.71529597,0 C8.95748457,0.796164911 6.15308765,1.72324045 4.77192702,2.29582905 C3.51075875,2.81863408 -0.105947842,4.71451961 0.0023818276,8.36193383 C0.110711497,12.0094411 2.08364524,12.7569081 1.77694123,13.997465 C1.77694123,13.997465 2.42712086,13.6431021 3.18414131,13.256853 C5.70889724,11.9685286 6.57651165,12.4655268 8.19975071,11.0720056 C9.83241918,9.67045077 11.5373746,8.05405114 9.71528046,0 L9.71529597,0 Z M9.39053959,8.10966605 C8.70498416,10.5165233 6.52294391,11.0558143 4.97831947,11.5800152 C4.30600863,11.8081821 3.64805904,12.159924 3.15036292,12.4603779 C3.22592228,11.5886536 3.80977035,10.456783 5.16876876,10.0351736 C6.4762311,9.62946075 7.241006,8.85082089 7.44927502,8.61587656 C7.02189625,8.99835706 4.79094093,9.62130307 4.51928703,9.51678859 C4.23055783,9.40566731 4.38280871,8.0813468 5.42126917,7.92442775 C6.93757436,7.69542332 7.95728456,6.65851375 7.95728456,6.65851375 C7.95728456,6.65851375 5.22291033,7.77636427 5.42126917,7.22081995 C5.81505566,6.11899012 7.70464458,4.19807323 7.70464458,4.19807323 C6.29742899,4.66090535 3.77960554,8.38733741 3.47290152,8.66505529 C3.16613547,8.94281969 2.99349039,6.53113915 2.73011825,6.02962784 C2.23236009,5.08169283 3.02180965,9.46118918 3.00375729,10.2943428 C2.99021802,10.9201735 2.46773867,12.1310154 2.20855393,12.694919 C1.99769492,12.1752157 1.39277026,11.9835102 0.910986266,9.96113409 C-0.183476835,5.36701007 3.3104613,3.85117015 5.38527301,2.99942134 C7.45999167,2.14776558 9.24615173,1.29601677 9.24615173,1.29601677 C9.24615173,1.29601677 10.0761105,5.70263818 9.39053959,8.10966605 Z M7.5659297,8.54707908 C7.5659297,8.54707908 7.52692605,8.58939701 7.44925951,8.66374927 C7.50269979,8.62316719 7.54257088,8.58408425 7.5659297,8.54707908 Z" id="形状"></path>
            </g>
        </g>
    </g>
</svg>