<?xml version="1.0" encoding="UTF-8"?>
<svg width="9px" height="16px" viewBox="0 0 9 16" version="1.1" xmlns="http://www.w3.org/2000/svg" xmlns:xlink="http://www.w3.org/1999/xlink">
    <title>TL_10</title>
    <g id="页面-1" stroke="none" stroke-width="1" fill="none" fill-rule="evenodd">
        <g id="切图" transform="translate(-1228.000000, -657.000000)" fill-rule="nonzero">
            <g id="TL_10" transform="translate(1228.760858, 657.437095)">
                <path d="M6.43558021,0.384415729 C6.35521174,0.443947923 6.26293684,0.515386555 6.16470872,0.598731626 C5.17542731,1.43554866 4.60219201,2.66359924 4.59603542,3.95932397 C4.59442324,4.01734006 4.54691595,4.06350531 4.48887747,4.06350531 L3.71495895,4.06350531 C3.65692046,4.06350531 3.60941318,4.01734006 3.607801,3.95932397 C3.607801,3.36400203 3.69412268,0.461807581 6.36116496,0.193912709 C6.40957376,0.188539832 6.45551675,0.216489631 6.47300121,0.261949208 C6.49048566,0.307408785 6.47511289,0.35894157 6.43558021,0.387392338 L6.43558021,0.384415729 Z" id="路径" fill="#619B3B"></path>
                <path d="M6.16470872,0.595755017 C5.17542731,1.43257205 4.60219201,2.66062263 4.59603542,3.95634736 C4.59442324,4.01436345 4.54691595,4.0605287 4.48887747,4.0605287 L4.00964331,4.0605287 C4.03047958,3.27768035 4.26265513,1.15238103 6.16470872,0.595755017 L6.16470872,0.595755017 Z" id="路径" fill="#68AF3A"></path>
                <path d="M4.0989416,5.77803249 C4.0989416,5.86137756 4.07215211,5.92983958 4.06024567,5.98044195 C4.04693936,6.03647282 3.99172629,6.07196694 3.93522807,6.06081041 L2.74458419,5.8137518 C2.68870752,5.8017994 2.65203886,5.748106 2.66123912,5.69171081 C2.95890009,3.90574499 1.53012744,2.58413029 0.73834926,2.0036914 C0.699452303,1.97220608 0.687526743,1.91799099 0.709621096,1.87308956 C0.731715449,1.82818813 0.781945924,1.80455775 0.830624161,1.81616499 C1.07355858,1.88355504 1.31297749,1.9630302 1.5479871,2.05429376 C4.20014633,3.07527089 4.19716972,5.03090345 4.08703516,5.77803249 L4.0989416,5.77803249 Z" id="路径" fill="#619B3B"></path>
                <path d="M4.0989416,5.77803249 L3.22679496,5.59943591 C3.17091829,5.5874835 3.13424962,5.5337901 3.14344989,5.47739491 C3.40539154,3.93253448 2.35762493,2.72700755 1.55989353,2.05429376 C4.21205277,3.07527089 4.20907616,5.03090345 4.0989416,5.77803249 Z" id="路径" fill="#68AF3A"></path>
                <path d="M4.48887747,4.20935919 L3.71495895,4.20935919 C3.57473477,4.20935919 3.46060103,4.09656206 3.45897052,3.95634736 C3.45897052,3.48901964 3.50957288,1.87272057 4.51864357,0.866626499 C4.5770033,0.808266772 4.67162312,0.808266775 4.72998285,0.866626505 C4.78834258,0.924986235 4.78834258,1.01960605 4.72998285,1.07796579 C3.83699995,1.97094869 3.75365488,3.42651083 3.75663149,3.91169821 L4.44720493,3.91169821 C4.46980328,2.58925374 5.05959386,1.34028546 6.0664806,0.482643849 L6.22126431,0.357626242 C6.12898941,0.357626242 6.03671451,0.387392338 5.94741622,0.408228606 C5.89424421,0.420458172 5.83858684,0.403391825 5.80140973,0.363458293 C5.76423261,0.323524761 5.75118382,0.266790899 5.76717871,0.214627804 C5.78317361,0.16246471 5.82578218,0.122797198 5.87895419,0.110567637 C6.0328357,0.0744064714 6.18895828,0.048551777 6.34628192,0.0331757854 C6.4689969,0.00984885694 6.59062913,0.0784951977 6.63408497,0.195604993 C6.6775408,0.312714788 6.63012964,0.444087922 6.52190189,0.506456726 C6.44451004,0.56301231 6.35521174,0.631474333 6.25996023,0.711842795 C5.30166657,1.51865161 4.74742529,2.70662262 4.7448659,3.95932397 C4.74163135,4.09837224 4.62796336,4.20935919 4.48887747,4.20935919 L4.48887747,4.20935919 Z" id="路径" fill="#7B365D"></path>
                <path d="M5.04550348,0.780304818 C4.97903556,0.78147849 4.91984957,0.738429296 4.90049365,0.674831254 C4.88113772,0.611233213 4.90630629,0.542510895 4.96215841,0.506456726 C5.07622158,0.432263051 5.19561099,0.366598873 5.31935157,0.310000487 C5.3677381,0.287668238 5.42436321,0.292846297 5.46789677,0.323584139 C5.51143033,0.354321981 5.53525855,0.405949796 5.53040558,0.459019885 C5.5255526,0.512089974 5.49275571,0.558539726 5.44436918,0.580871968 C5.33195344,0.631163323 5.22349506,0.689870155 5.11991872,0.75649194 C5.09767701,0.770915146 5.07198662,0.77913607 5.04550348,0.780304818 L5.04550348,0.780304818 Z M3.95904094,6.2126175 L3.90843858,6.2126175 L2.7177947,5.9655589 C2.65183114,5.95261665 2.59372939,5.91395654 2.55631299,5.85811116 C2.51889658,5.80226578 2.50524162,5.73382632 2.51836185,5.66789793 C2.81602282,3.99206667 1.47357185,2.72700755 0.655004189,2.12275579 C0.556174017,2.05022057 0.523563268,1.91726906 0.577612337,1.80723516 C0.630805182,1.69575868 0.756013152,1.63816301 0.875273306,1.67031111 C1.13026662,1.7388849 1.38161705,1.82035025 1.62835556,1.91439311 C4.36385986,2.96811294 4.38171952,4.98030109 4.26265513,5.78398571 C4.26265513,5.87030739 4.23586565,5.94472263 4.22395921,5.9983016 C4.20293307,6.12667397 4.0889737,6.21886582 3.95904094,6.2126175 L3.95904094,6.2126175 Z M2.80709299,5.67682776 L3.92927485,5.9060267 C3.92927485,5.86435417 3.94713451,5.8137518 3.95606433,5.75719622 C4.06619889,5.0130438 4.04833924,3.17349901 1.51226778,2.18526459 C1.34855425,2.12275579 1.17888749,2.06322359 1.00029091,2.00964462 C1.86350772,2.70319468 3.06903465,3.98313684 2.80411638,5.67682776 L2.80709299,5.67682776 Z" id="形状" fill="#7B365D"></path>
                <path d="M5.37888377,6.29893918 C5.37727159,6.35695528 5.3297643,6.40312053 5.27172582,6.40312053 L3.80425724,6.40312053 C3.74507554,6.40312053 3.69709929,6.35514427 3.69709929,6.29596257 C3.67538755,3.87251994 2.41531767,1.62865218 0.35734322,0.348696413 C0.317398363,0.322250987 0.299859023,0.272505467 0.314384194,0.226854929 C0.328909365,0.181204392 0.37196984,0.15074063 0.419852023,0.152187192 C0.800098502,0.172336838 1.17771335,0.227135827 1.5479871,0.315953706 C5.11991872,1.17619391 5.38483699,5.00709058 5.39079021,6.10843616 L5.39079021,6.30191579 L5.37888377,6.29893918 Z" id="路径" fill="#67A53F"></path>
                <path d="M5.38186038,6.10545955 L4.60496525,6.10545955 C4.54578355,6.10545955 4.4978073,6.0574833 4.4978073,5.9983016 C4.48353989,3.740524 3.38628476,1.6268408 1.5479871,0.315953706 C5.11991872,1.17619391 5.38483699,5.00709058 5.39079021,6.10843616 L5.38186038,6.10545955 Z" id="路径" fill="#6FAF46"></path>
                <path d="M1.46166541,1.3577671 C1.42386203,1.35723489 1.38767808,1.34233562 1.36046069,1.31609456 L1.1818641,1.15238103 C1.13924785,1.11805599 1.11890472,1.06311362 1.12889088,1.00931185 C1.13887704,0.955510085 1.17758165,0.911527579 1.22967713,0.894782018 C1.28177262,0.878036457 1.33885557,0.891229033 1.37832034,0.929135302 L1.56584675,1.09880205 C1.60928497,1.14065848 1.62316184,1.20459536 1.60098363,1.26069318 C1.57880542,1.316791 1.524959,1.35395356 1.46464202,1.35479049 L1.46166541,1.3577671 Z" id="路径" fill="#7B365D"></path>
                <path d="M5.27470243,6.55196834 L3.80425724,6.55196834 C3.66403306,6.55196834 3.54989932,6.43915388 3.54826881,6.29893918 C3.55050618,4.60339669 2.91267556,2.96948726 1.76230299,1.72389009 C1.7228439,1.68518071 1.70808852,1.62779112 1.72398337,1.57484974 C1.73987821,1.52190836 1.78380467,1.48213711 1.83806006,1.47156409 C1.89231545,1.46099107 1.94796136,1.48135814 1.98257211,1.52445724 C3.1665983,2.81701466 3.83127128,4.50148893 3.84890639,6.25429004 L5.2360065,6.25429004 L5.2360065,6.10843616 C5.2360065,4.99220753 4.93834553,1.29228168 1.50929117,0.452877752 C1.20205798,0.379765221 0.889537315,0.330996073 0.574635727,0.307023877 C0.708583163,0.396322168 0.845507209,0.494550287 0.979454645,0.604684846 C1.0386131,0.656488357 1.0472647,0.745374055 0.999206479,0.807613387 C0.951148261,0.869852718 0.862964926,0.883967142 0.797881454,0.839837011 C0.625238092,0.708866185 0.44961812,0.586825188 0.276974758,0.476690629 C0.17597941,0.41478886 0.131451833,0.291101146 0.16981681,0.17902966 C0.205061601,0.0672239923 0.311749195,-0.00635365856 0.428781853,0.000433078808 C0.815937083,0.0201253136 1.20050552,0.0749213345 1.57775319,0.164146612 C5.22707667,1.05712952 5.52771425,4.92672212 5.53366747,6.09950633 L5.53366747,6.29596257 C5.53366747,6.36437382 5.50629374,6.42994067 5.45764088,6.4780343 C5.40898802,6.52612794 5.34310905,6.55274649 5.27470243,6.55196834 L5.27470243,6.55196834 Z" id="路径" fill="#7B365D"></path>
                <path d="M7.39107192,3.43544066 C6.6498961,3.85811924 5.20921701,4.92374551 5.15861465,6.83472893 C5.15700247,6.89274502 5.10949519,6.93891027 5.0514567,6.93891027 L4.05429245,6.93891027 C3.99625397,6.93891027 3.94874668,6.89274502 3.94713451,6.83472893 C3.94713451,6.26024326 4.06024567,3.49199624 7.32856311,3.23898442 C7.37844389,3.23495865 7.42446936,3.26599333 7.4394365,3.31374564 C7.45440364,3.36149795 7.43432666,3.41325131 7.39107192,3.43841727 L7.39107192,3.43544066 Z" id="路径" fill="#619B3B"></path>
                <path d="M5.05443331,7.08476415 L4.05429245,7.08476415 C3.91520657,7.08476415 3.80153857,6.9737772 3.79830402,6.83472893 C3.79830402,6.25429004 3.91141519,3.35209559 7.31665667,3.08717733 C7.43498356,3.07962408 7.54301188,3.15431539 7.57773156,3.26768579 C7.61245125,3.38105619 7.56477477,3.50343209 7.46251055,3.56343488 C6.67668559,4.00992633 5.35209428,5.03090345 5.30446852,6.83770554 C5.30127062,6.97396113 5.19071743,7.08319821 5.05443331,7.08476415 L5.05443331,7.08476415 Z M4.0989416,6.78710317 L5.01573738,6.78710317 C5.0812228,4.98030109 6.31651582,3.91765143 7.15889636,3.39972134 C4.26860835,3.72714841 4.09596499,6.1828514 4.09596499,6.78710317 L4.0989416,6.78710317 Z" id="形状" fill="#7B365D"></path>
                <path d="M7.68575628,1.21488983 C7.46886797,1.36165719 7.26202897,1.52275295 7.06662146,1.6971006 C5.78301339,2.84824266 5.05018657,4.49142008 5.0514567,6.21559411 C5.0514567,6.27477581 5.00348045,6.32275207 4.94429875,6.32275207 L3.80723385,6.32275207 C3.74919537,6.32275207 3.70168808,6.27658681 3.7000759,6.21857072 C3.68519285,5.49823118 3.75663149,1.28930507 7.61729425,1.01545698 C7.66453448,1.01318993 7.70767455,1.04216048 7.72345102,1.08674615 C7.73922748,1.13133181 7.72390906,1.18098767 7.68575628,1.20893661 L7.68575628,1.21488983 Z" id="路径" fill="#80C15A"></path>
                <path d="M7.06662146,1.6971006 C5.78301339,2.84824266 5.05018657,4.49142008 5.0514567,6.21559411 C5.0514567,6.27477581 5.00348045,6.32275206 4.94429875,6.32275206 L4.25670191,6.32275206 C4.29539784,5.21842986 4.64366117,2.50078522 7.06364485,1.6971006 L7.06662146,1.6971006 Z" id="路径" fill="#75AD50"></path>
                <path d="M4.94429875,6.47753576 L3.80723385,6.47753576 C3.66814796,6.47757338 3.55447997,6.36654883 3.55124542,6.22750055 C3.53338576,5.3821434 3.6375671,1.16726408 7.60836442,0.869603108 C7.72431947,0.860300866 7.83196759,0.930351492 7.8704276,1.04013734 C7.90888761,1.14992318 7.86848836,1.27183753 7.77207796,1.33693083 C7.56331079,1.48232644 7.36443234,1.64142921 7.17675602,1.81318838 C5.92221707,2.93577934 5.20731525,4.54105887 5.21219362,6.22452394 C5.21146096,6.29401239 5.18250892,6.36021694 5.1319871,6.407932 C5.08146528,6.45564705 5.01371567,6.48077183 4.94429875,6.47753576 Z M3.84890639,6.17987479 L4.90262622,6.17987479 C4.90997565,4.42869472 5.65963636,2.76278202 6.96541673,1.59589587 C7.12762889,1.44998354 7.29753895,1.31286313 7.47441699,1.18512374 C3.98285382,1.53934029 3.83402334,5.30772816 3.84890639,6.17987479 L3.84890639,6.17987479 Z" id="形状" fill="#7B365D"></path>
                <path d="M4.26265513,6.92998044 C4.26104296,6.98799653 4.21353567,7.03416178 4.15549718,7.03416178 L2.92913399,7.03416178 C2.87109551,7.03416178 2.82358822,6.98799653 2.82197604,6.92998044 C2.77435029,5.5666932 1.80992875,4.65585063 0.955641768,4.11113106 C0.712843706,3.95787604 0.460285435,3.82065934 0.199582906,3.70035892 C0.154760167,3.67737643 0.131995119,3.62627819 0.144884773,3.57758394 C0.157774427,3.52888969 0.202838735,3.49574628 0.253161881,3.49794946 C4.12275448,3.74500807 4.27456157,6.37037781 4.26265513,6.92998044 L4.26265513,6.92998044 Z" id="路径" fill="#79BC4D"></path>
                <path d="M3.79532741,7.03416178 L2.92913399,7.03416178 C2.87109551,7.03416178 2.82358822,6.98799653 2.82197604,6.92998044 C2.77435029,5.5666932 1.80992875,4.65585063 0.955641768,4.11113106 C3.26251428,4.64989741 3.71495895,6.2423836 3.79532741,7.03118517 L3.79532741,7.03416178 Z" id="路径" fill="#6FAF46"></path>
                <path d="M4.15549718,7.18299226 L2.92913399,7.18299226 C2.79117063,7.18307623 2.67795821,7.07381308 2.67314556,6.93593366 C2.62849641,5.62324878 1.67002809,4.74514892 0.887179745,4.23912528 C0.650162746,4.08918387 0.403567147,3.95494836 0.148980542,3.83728297 C0.035421693,3.78603929 -0.0239323485,3.65975409 0.00907988627,3.539622 C0.0368235511,3.4181169 0.149812855,3.33559662 0.273998149,3.34614237 C4.2834914,3.6021308 4.44125171,6.37633103 4.42339206,6.918074 C4.42596902,6.98961706 4.39847004,7.0589704 4.34756664,7.1093082 C4.29666324,7.15964601 4.22700699,7.1863684 4.15549718,7.18299226 L4.15549718,7.18299226 Z M2.96485331,6.88533129 L4.10787143,6.88533129 C4.10787143,6.30786901 3.89355553,3.97718362 0.458547949,3.66463961 C0.657980799,3.76584434 0.848483819,3.87300229 1.03005701,3.98909006 C1.88434399,4.52785642 2.9023445,5.46548847 2.97080653,6.88533129 L2.96485331,6.88533129 Z" id="形状" fill="#7B365D"></path>
                <path d="M7.75124169,4.82551739 C6.81063303,5.09936548 4.95620519,5.873284 4.58710559,7.74557149 C4.57515318,7.80144816 4.52145978,7.83811683 4.46506459,7.82891656 L3.25358445,7.62948371 C3.19661676,7.62031089 3.15714112,7.56767669 3.16428616,7.51041933 C3.24763123,6.94188688 3.84295317,4.23614867 7.73040542,4.61715471 C7.78046319,4.6229311 7.81973366,4.66280376 7.82474765,4.71294364 C7.82976163,4.76308351 7.79916438,4.80994295 7.75124169,4.82551739 L7.75124169,4.82551739 Z" id="路径" fill="#79BC4D"></path>
                <path d="M3.69412268,7.70389896 L4.98299468,6.73054759 C5.55748035,5.78398571 6.55464459,5.24224274 7.30772685,4.97434787 C4.52459679,5.04876311 3.85485961,6.95379331 3.69412268,7.70389896 Z" id="路径" fill="#6FAF46"></path>
                <path d="M4.48292425,7.98072366 L4.44125171,7.98072366 L3.22977157,7.78129081 C3.16200433,7.7703841 3.10145601,7.73271938 3.06171921,7.67675205 C3.02198241,7.62078473 3.00638637,7.55120388 3.01843228,7.48362984 C3.10177735,6.90914417 3.72091217,4.0605287 7.74528847,4.46534761 C7.87573727,4.46600608 7.98482615,4.56465349 7.99856177,4.6943788 C8.01229739,4.82410411 7.92628584,4.94340921 7.79886744,4.97137126 C6.80467981,5.26903223 5.08717602,6.01318465 4.73891268,7.7783142 C4.71431196,7.89915217 4.60617834,7.98465318 4.48292425,7.98072366 Z M3.33395291,7.48958306 L4.46208798,7.67710947 C4.83416419,5.89114365 6.45046325,5.09341226 7.51608952,4.74812553 C4.02452636,4.49511371 3.41729798,6.89426112 3.33395291,7.48958306 L3.33395291,7.48958306 Z" id="形状" fill="#7B365D"></path>
                <path d="M5.33125801,5.67682776 L2.87257841,5.67682776 C1.83906832,5.76113054 1.01162122,6.56857892 0.902062793,7.59971762 C0.875273306,7.84975283 0.902062793,12.8712934 0.902062793,13.0052408 C1.01796176,14.123164 1.96000272,14.9726716 3.0839177,14.9727798 C5.42353291,14.9727798 5.56045696,15.017429 6.06052739,14.8328792 C6.91806255,14.5114862 7.4862498,13.6918257 7.48632343,12.7760419 L7.48632343,7.83486978 C7.48632343,6.64880416 6.52920186,5.68500752 5.34316445,5.67682776 L5.33125801,5.67682776 Z" id="路径" fill="#F18B19"></path>
                <path d="M4.17931006,14.5828439 L4.17931006,14.9817096 C5.07229297,14.9430137 5.8819308,15.1603062 6.70645169,14.4548497 C6.88857354,14.2966818 7.04343991,14.1096354 7.16484958,13.9012003 C6.90565958,13.3581328 6.35865479,13.0111953 5.7569132,13.0082174 C4.89055885,13.0082174 4.18823989,13.7105364 4.18823989,14.5768907 L4.17931006,14.5828439 Z" id="路径" fill="#BB581E"></path>
                <path d="M1.19377054,13.9012003 C1.5889827,14.5674602 2.30628321,14.9758916 3.08094109,14.9757565 L4.17931006,14.9757565 C4.19605788,14.8433286 4.19605788,14.7093185 4.17931006,14.5768907 C4.17932404,13.7140118 3.48243158,13.0131294 2.61956658,13.008217 C2.01459774,13.0077639 1.46328458,13.3552302 1.20270037,13.9012003 L1.19377054,13.9012003 Z" id="路径" fill="#9C4521"></path>
                <path d="M2.60170693,13.0082174 C2.60196224,13.6343099 2.22989687,14.200598 1.65514504,14.4488965 C1.47246901,14.2927586 1.3166126,14.1077419 1.19377054,13.9012003 C0.74430248,13.1421649 0.92885228,12.5885155 0.896109574,11.4306143 L1.04196345,11.4306143 C1.45800358,11.4329759 1.85606489,11.6005156 2.14857498,11.896375 C2.44108508,12.1922345 2.60408202,12.5921774 2.60170693,13.0082174 L2.60170693,13.0082174 Z" id="路径" fill="#DC6A0E"></path>
                <path d="M4.17038023,11.4454973 C4.80539012,11.4455019 5.37775836,11.8283442 5.62020623,12.4152485 C5.8626541,13.0021527 5.72735032,13.6773316 5.27747769,14.1254969 C4.82760505,14.5736623 4.15191658,14.7063979 3.56593843,14.4617202 C2.97996028,14.2170425 2.59929702,13.6432227 2.60169555,13.0082174 C2.60169555,12.1418631 3.30402589,11.4395441 4.17038023,11.4395441 L4.17038023,11.4454973 Z" id="路径" fill="#DC6A0E"></path>
                <path d="M7.47144038,11.4365675 L7.47144038,13.0141706 C7.41364195,13.57665 7.14060224,14.0949988 6.7094283,14.460803 C6.01983712,14.1716392 5.63021689,13.4359302 5.7785348,12.7030226 C5.92685271,11.9701151 6.57187081,11.443785 7.31963328,11.4454973 L7.34642277,11.4454973 C7.39199685,11.441993 7.43777273,11.441993 7.48334682,11.4454973 L7.47144038,11.4365675 Z" id="路径" fill="#DC6A0E"></path>
                <path d="M2.61063676,9.87384742 C3.24510588,9.87384742 3.81710109,10.2560424 4.05990192,10.8422154 C4.30270274,11.4283885 4.16849371,12.1031028 3.71985629,12.5517403 C3.27121887,13.0003777 2.59650451,13.1345867 2.01033147,12.8917859 C1.42415843,12.6489851 1.04196345,12.0769899 1.04196345,11.4425207 C1.04196345,10.5761664 1.74428241,9.87384742 2.61063676,9.87384742 L2.61063676,9.87384742 Z" id="路径" fill="#EF7C13"></path>
                <path d="M5.74798337,9.87384742 C6.3824525,9.87384742 6.95444771,10.2560424 7.19724853,10.8422154 C7.44004935,11.4283885 7.30584032,12.1031028 6.8572029,12.5517403 C6.40856548,13.0003777 5.73385112,13.1345867 5.14767808,12.8917859 C4.56150504,12.6489851 4.17931006,12.0769899 4.17931006,11.4425207 C4.17931006,10.5761664 4.88162902,9.87384742 5.74798337,9.87384742 L5.74798337,9.87384742 Z" id="路径" fill="#EF7C13"></path>
                <path d="M2.60170715,9.87384742 C2.60194399,10.3153993 2.4160767,10.7366041 2.08973957,11.0340468 C1.76340243,11.3314895 1.32681887,11.4776227 0.887179745,11.4365675 L0.887179745,8.29922089 L1.03303362,8.29922089 C1.89589862,8.30413292 2.59279108,9.00501522 2.5927771,9.8678942 L2.60170715,9.87384742 Z" id="路径" fill="#F18B19"></path>
                <path d="M4.17038023,8.30517411 C5.03673458,8.30517411 5.73905354,9.00749308 5.73905354,9.87384742 C5.73905354,10.7402018 5.03673458,11.4425207 4.17038023,11.4425207 C3.30402589,11.4425207 2.60170693,10.7402018 2.60170693,9.87384742 C2.60170693,9.00749308 3.30402589,8.30517411 4.17038023,8.30517411 L4.17038023,8.30517411 Z" id="路径" fill="#F18B19"></path>
                <path d="M7.47144038,8.29624428 L7.47144038,11.4365675 C6.90083835,11.4851441 6.3491077,11.2189208 6.03205618,10.7420302 C5.71500466,10.2651395 5.68302066,9.6533728 5.94861462,9.14602065 C6.21420858,8.6386685 6.73517016,8.31636344 7.30772685,8.30517411 L7.46251055,8.30517411 L7.47144038,8.29624428 Z" id="路径" fill="#F18B19"></path>
                <path d="M2.61063676,6.73650081 C3.4769911,6.73650081 4.17931006,7.43881977 4.17931006,8.30517411 C4.17931006,9.17152846 3.4769911,9.87384742 2.61063676,9.87384742 C1.74428241,9.87384742 1.04196345,9.17152846 1.04196345,8.30517411 C1.04196345,7.43881977 1.74428241,6.73650081 2.61063676,6.73650081 L2.61063676,6.73650081 Z" id="路径" fill="#F39B2A"></path>
                <path d="M5.74798337,6.73650081 C6.3824525,6.73650081 6.95444771,7.11869579 7.19724853,7.70486883 C7.44004935,8.29104187 7.30584032,8.96575622 6.8572029,9.41439365 C6.40856548,9.86303107 5.73385112,9.9972401 5.14767808,9.75443927 C4.56150504,9.51163845 4.17931006,8.93964324 4.17931006,8.30517411 C4.17931006,7.43881977 4.88162902,6.73650081 5.74798337,6.73650081 L5.74798337,6.73650081 Z" id="路径" fill="#F39B2A"></path>
                <path d="M2.60170693,6.73650081 C2.60172091,7.59937978 1.90482844,8.30026209 1.04196345,8.30517411 L0.896109574,8.30517411 L0.896109574,7.83486978 C0.897181304,6.93160973 1.45992154,6.12430306 2.30702257,5.81077519 C2.50235428,6.07974739 2.60664464,6.40409041 2.60468354,6.73650081 L2.60170693,6.73650081 Z" id="路径" fill="#F6AB4A"></path>
                <path d="M5.73905558,6.73650081 C5.73905558,7.59937978 5.04217506,8.30026209 4.17931006,8.30517462 C3.55707653,8.30567235 2.99336842,7.93834607 2.74251156,7.36892035 C2.4916547,6.79949462 2.60107623,6.13562539 3.02140889,5.67682776 L5.3282814,5.67682776 C5.59309625,5.96613528 5.73968627,6.34429506 5.73905558,6.73650081 L5.73905558,6.73650081 Z" id="路径" fill="#F6AB4A"></path>
                <path d="M7.47144038,7.83486978 L7.47144038,8.29624428 L7.31665667,8.29624428 C6.75129739,8.29433976 6.23070076,7.98835954 5.95399372,7.49534031 C5.67728668,7.00232108 5.68728292,6.39854562 5.98015892,5.91495653 C6.02000496,5.84874267 6.10258385,5.82206334 6.17363855,5.85244773 C6.7167954,6.08686483 7.14050088,6.53315359 7.34642277,7.08774075 C7.43496564,7.3279182 7.48031378,7.58186779 7.48037021,7.83784639 L7.47144038,7.83486978 Z" id="路径" fill="#F6AB4A"></path>
                <path d="M4.09298838,5.67682776 C3.87499427,6.31231602 3.27651911,6.73843033 2.60468354,6.73650733 C2.20403169,6.73474457 1.81935884,6.57917051 1.53012744,6.30191579 C1.74903164,6.0849581 2.01192529,5.91747759 2.30106935,5.81077519 L2.35762493,5.78993893 C2.52422515,5.73321146 2.69717852,5.69722116 2.87257841,5.68278098 L4.0989416,5.68278098 L4.09298838,5.67682776 Z M6.8314693,6.30191579 C6.54000687,6.58130211 6.15172434,6.73704181 5.74798337,6.73650733 C5.07614779,6.73843033 4.47767264,6.31231602 4.25967852,5.67682776 L5.5128312,5.67682776 C5.68738702,5.69223217 5.85935852,5.72922604 6.02480807,5.78696232 L6.04564434,5.78696232 C6.34068044,5.89341588 6.60888156,6.06307341 6.8314693,6.28405613 L6.8314693,6.30191579 Z" id="形状" fill="#F8BA71"></path>
                <path d="M4.76867878,15.1365095 L3.0839177,15.1365095 C1.88169154,15.1409239 0.872834192,14.2312773 0.753232309,13.0350069 C0.732396041,12.8266442 0.732396041,7.79617386 0.753232309,7.59674101 C0.868688307,6.49306317 1.7545145,5.62850681 2.86067197,5.53990371 L5.33423462,5.53990371 C6.60178924,5.54970368 7.62462847,6.57918472 7.62622408,7.84677622 L7.62622408,12.7879483 C7.62363638,13.764011 7.01834745,14.6370011 6.10517653,14.9817096 C5.75095998,15.1156571 5.57831662,15.1365095 4.76867878,15.1365095 L4.76867878,15.1365095 Z M3.48576,5.82565824 L2.89043807,5.82565824 C1.9231212,5.89608894 1.14419035,6.64746918 1.03898684,7.61162406 C1.01815057,7.79617386 1.01815057,12.7224629 1.03898684,12.9903578 C1.14335393,14.0350973 2.0250611,14.8291494 3.07498787,14.8239747 L4.20014633,14.8239747 C5.45925223,14.8239747 5.61998915,14.8239747 5.98611214,14.6900019 C6.78361668,14.3885076 7.31192762,13.625655 7.31368006,12.7730653 L7.31368006,7.83486978 C7.3120766,6.73051613 6.42069958,5.83382538 5.31637496,5.82565824 L3.47087696,5.82565824 L3.48576,5.82565824 Z" id="形状" fill="#7B365D"></path>
                <path d="M4.17931006,14.5828439 L4.17931006,14.9817096 C5.07229297,14.9430137 5.8819308,15.1603062 6.70645169,14.4548497 C6.88857354,14.2966818 7.04343991,14.1096354 7.16484958,13.9012003 C6.90565958,13.3581328 6.35865479,13.0111953 5.7569132,13.0082174 C4.89055885,13.0082174 4.18823989,13.7105364 4.18823989,14.5768907 L4.17931006,14.5828439 Z" id="路径" fill="#EF6225"></path>
                <path d="M4.03047958,15.1364934 L4.03047958,14.5828439 C4.02300962,13.7744776 4.58027027,13.0703277 5.36872314,12.8918507 C6.15717601,12.7133736 6.96336089,13.108889 7.30475024,13.8416681 L7.34046955,13.9131068 L7.29879702,13.9815688 C7.16921325,14.205861 7.00323628,14.4070453 6.80765642,14.5768907 C6.12005958,15.1722127 5.42650952,15.1513764 4.75677234,15.13947 L4.1912165,15.13947 L4.03047958,15.1364934 Z M4.4382751,14.8388324 L4.75974895,14.8388324 C5.43246274,14.8388324 6.00992502,14.8626453 6.61120018,14.3476918 C6.76000694,14.2181082 6.88933408,14.0677278 6.99518283,13.9012003 C6.69083833,13.316721 6.0243471,13.0184603 5.38572557,13.180954 C4.74710405,13.3434477 4.30421768,13.9239834 4.31623411,14.5828439 L4.31623411,14.8299026 L4.4382751,14.8388324 Z" id="形状" fill="#7B365D"></path>
                <path d="M1.19377054,13.9012003 C1.5889827,14.5674602 2.30628321,14.9758916 3.08094109,14.9757565 L4.17931006,14.9757565 C4.19605788,14.8433286 4.19605788,14.7093185 4.17931006,14.5768907 C4.17932404,13.7140118 3.48243158,13.0131294 2.61956658,13.008217 C2.01459774,13.0077639 1.46328458,13.3552302 1.20270037,13.9012003 L1.19377054,13.9012003 Z" id="路径" fill="#EA552D"></path>
                <path d="M4.29539784,15.1305401 L3.08094109,15.1305401 C2.25406669,15.1279738 1.48914244,14.6918427 1.06577633,13.9815688 L1.02410379,13.9012003 L1.05982311,13.8297617 C1.40121246,13.0969825 2.20739733,12.7014672 2.9958502,12.8799442 C3.78430307,13.0584213 4.34156372,13.7625711 4.33409377,14.5709375 L4.33409377,14.6959551 C4.35074695,14.7944767 4.35074695,14.8950945 4.33409377,14.9936161 L4.29539784,15.1305401 Z M1.3634373,13.9012003 C1.74177516,14.4823582 2.38748626,14.8337504 3.08094109,14.8358558 L4.04536263,14.8358558 L4.04536263,14.734651 L4.04536263,14.5858206 C4.05737905,13.92696 3.61449268,13.3464243 2.97587116,13.1839306 C2.33724964,13.0214369 1.67075841,13.3196976 1.3664139,13.9041769 L1.3634373,13.9012003 Z" id="形状" fill="#7B365D"></path>
                <path d="M2.60170693,13.0082174 C2.60196224,13.6343099 2.22989687,14.200598 1.65514504,14.4488965 C1.47246901,14.2927586 1.3166126,14.1077419 1.19377054,13.9012003 C0.74430248,13.1421649 0.92885228,12.5885155 0.896109574,11.4306143 L1.04196345,11.4306143 C1.45800358,11.4329759 1.85606489,11.6005156 2.14857498,11.896375 C2.44108508,12.1922345 2.60408202,12.5921774 2.60170693,13.0082174 L2.60170693,13.0082174 Z" id="路径" fill="#FF7110"></path>
                <path d="M1.62835556,14.6274931 L1.55691692,14.5679609 C1.36133707,14.3981154 1.19536009,14.1969312 1.06577633,13.972639 C0.717512992,13.377317 0.726442822,12.9099893 0.73834926,12.2521586 L0.73834926,11.2907136 L0.878249916,11.2907136 C0.915852592,11.2868099 0.953758407,11.2868099 0.991361084,11.2907136 L1.03898684,11.2907136 C1.85444256,11.2894375 2.55837628,11.8617402 2.72356853,12.6602897 C2.88876078,13.4588391 2.4696645,14.2634579 1.72063046,14.5858206 L1.62835556,14.6274931 Z M1.03303362,11.5913512 L1.03303362,12.2670416 C1.03303362,12.8980829 1.01219735,13.3148082 1.33069459,13.8297617 C1.4282288,13.9946083 1.54847176,14.144912 1.68788775,14.2762532 C2.26530416,13.9754238 2.56412049,13.3204179 2.41284091,12.6871545 C2.26156132,12.0538912 1.69895719,11.604669 1.04791667,11.5973044 L1.03303362,11.5913512 Z" id="形状" fill="#7B365D"></path>
                <path d="M4.17038023,11.4454973 C4.80539012,11.4455019 5.37775836,11.8283442 5.62020623,12.4152485 C5.8626541,13.0021527 5.72735032,13.6773316 5.27747769,14.1254969 C4.82760505,14.5736623 4.15191658,14.7063979 3.56593843,14.4617202 C2.97996028,14.2170425 2.59929702,13.6432227 2.60169555,13.0082174 C2.60169555,12.1418631 3.30402589,11.4395441 4.17038023,11.4395441 L4.17038023,11.4454973 Z" id="路径" fill="#FF7110"></path>
                <path d="M4.17038023,14.7316744 C3.22260529,14.7316744 2.45397916,13.9639225 2.45288673,13.0161482 C2.45179663,12.0683739 3.21865276,11.2988597 4.16642517,11.2966668 C5.11419759,11.2944832 5.88459884,12.0604482 5.88788661,13.0082174 C5.88867415,13.4645174 5.70816711,13.9024423 5.38607252,14.2256534 C5.06397793,14.5488644 4.62668022,14.7308857 4.17038023,14.7316744 L4.17038023,14.7316744 Z M4.17038023,11.5913512 C3.59583681,11.5913512 3.07792328,11.937609 2.85833414,12.4685335 C2.638745,12.9994579 2.76076729,13.6103904 3.16745691,14.0162275 C3.57414653,14.4220645 4.18533383,14.5428044 4.71579625,14.3221015 C5.24625867,14.1013986 5.59142755,13.5827596 5.5902262,13.0082174 C5.58532201,12.227065 4.95154638,11.5959467 4.17038023,11.5943278 L4.17038023,11.5913512 Z" id="形状" fill="#7B365D"></path>
                <path d="M7.47144038,11.4365675 L7.47144038,13.0141706 C7.41364195,13.57665 7.14060224,14.0949988 6.7094283,14.460803 C6.01983712,14.1716392 5.63021689,13.4359302 5.7785348,12.7030226 C5.92685271,11.9701151 6.57187081,11.443785 7.31963328,11.4454973 L7.34642277,11.4454973 C7.39199685,11.441993 7.43777273,11.441993 7.48334682,11.4454973 L7.47144038,11.4365675 Z" id="路径" fill="#FF7110"></path>
                <path d="M6.72431135,14.6334463 L6.64096628,14.597727 C5.88610038,14.2807571 5.45990879,13.4750316 5.62269734,12.672665 C5.78548589,11.8702983 6.49199278,11.2943809 7.31070346,11.2966669 L7.36725904,11.2966669 C7.40783196,11.2924861 7.44872712,11.2924861 7.48930004,11.2966669 L7.62324747,11.2966669 L7.62324747,12.4783809 C7.63414453,12.6597906 7.63414453,12.8416908 7.62324747,13.0231005 C7.56302217,13.6239668 7.27164117,14.1779109 6.81063303,14.5679609 L6.72431135,14.6334463 Z M7.31963328,11.5943278 C6.66913664,11.6030188 6.10776238,12.0526853 5.95727071,12.6855942 C5.80677904,13.3185031 6.10567376,13.9727225 6.68263881,14.2732765 C7.03776433,13.9408186 7.26169984,13.4918913 7.31368006,13.0082174 C7.32376876,12.8367145 7.32376876,12.6647669 7.31368006,12.4932639 C7.32260989,12.2938311 7.32260989,12.0170064 7.32260989,11.5943278 L7.31963328,11.5943278 Z" id="形状" fill="#7B365D"></path>
                <path d="M2.61063676,9.87384742 C3.24510588,9.87384742 3.81710109,10.2560424 4.05990192,10.8422154 C4.30270274,11.4283885 4.16849371,12.1031028 3.71985629,12.5517403 C3.27121887,13.0003777 2.59650451,13.1345867 2.01033147,12.8917859 C1.42415843,12.6489851 1.04196345,12.0769899 1.04196345,11.4425207 C1.04196345,10.5761664 1.74428241,9.87384742 2.61063676,9.87384742 L2.61063676,9.87384742 Z" id="路径" fill="#FF7D12"></path>
                <path d="M2.61063676,13.1630011 C1.6620856,13.1630011 0.893132964,12.3940485 0.893132964,11.4454973 C0.893132964,10.4969462 1.6620856,9.72799354 2.61063676,9.72799354 C3.55918791,9.72799354 4.32814055,10.4969462 4.32814055,11.4454973 C4.32650204,12.393369 3.55850839,13.1613626 2.61063676,13.1630011 L2.61063676,13.1630011 Z M2.61063676,10.0256545 C2.03636394,10.0256545 1.51863772,10.3715881 1.29887303,10.902147 C1.07910834,11.4327059 1.20058407,12.0434056 1.60665627,12.4494778 C2.01272847,12.85555 2.62342818,12.9770258 3.15398708,12.7572611 C3.68454598,12.5374964 4.03047958,12.0197702 4.03047958,11.4454973 C4.02557853,10.6643449 3.3918029,10.0332266 2.61063676,10.0316077 L2.61063676,10.0256545 Z" id="形状" fill="#7B365D"></path>
                <path d="M5.74798337,9.87384742 C6.3824525,9.87384742 6.95444771,10.2560424 7.19724853,10.8422154 C7.44004935,11.4283885 7.30584032,12.1031028 6.8572029,12.5517403 C6.40856548,13.0003777 5.73385112,13.1345867 5.14767808,12.8917859 C4.56150504,12.6489851 4.17931006,12.0769899 4.17931006,11.4425207 C4.17931006,10.5761664 4.88162902,9.87384742 5.74798337,9.87384742 L5.74798337,9.87384742 Z" id="路径" fill="#FF7D12"></path>
                <path d="M5.74798337,13.1630011 C4.79943222,13.1630011 4.03047958,12.3940485 4.03047958,11.4454973 C4.03047958,10.4969462 4.79943222,9.72799354 5.74798337,9.72799354 C6.69653452,9.72799354 7.46548716,10.4969462 7.46548716,11.4454973 C7.46384866,12.393369 6.695855,13.1613626 5.74798337,13.1630011 L5.74798337,13.1630011 Z M5.74798337,10.0256545 C4.96382583,10.0256545 4.32814055,10.6613398 4.32814055,11.4454973 C4.32814055,12.2296549 4.96382583,12.8653402 5.74798337,12.8653402 C6.53214091,12.8653402 7.16782619,12.2296549 7.16782619,11.4454973 C7.16292514,10.6643449 6.52914951,10.0332266 5.74798337,10.0316077 L5.74798337,10.0256545 Z" id="形状" fill="#7B365D"></path>
                <path d="M2.60170715,9.87384742 C2.60194399,10.3153993 2.4160767,10.7366041 2.08973957,11.0340468 C1.76340243,11.3314895 1.32681887,11.4776227 0.887179745,11.4365675 L0.887179745,8.29922089 L1.03303362,8.29922089 C1.89589862,8.30413292 2.59279108,9.00501522 2.5927771,9.8678942 L2.60170715,9.87384742 Z" id="路径" fill="#FF9327"></path>
                <path d="M1.03303362,11.5943278 L0.73834926,11.5943278 L0.73834926,8.16229685 L0.872296696,8.16229685 C0.909887353,8.15816743 0.947817208,8.15816743 0.985407865,8.16229685 L1.03303362,8.16229685 C1.98240674,8.16229685 2.75202572,8.93191582 2.75202572,9.88128894 C2.75202572,10.8306621 1.98240674,11.600281 1.03303362,11.600281 L1.03303362,11.5943278 Z M1.03303362,8.4540046 L1.03303362,11.2966669 C1.81801313,11.2966669 2.45436475,10.6603152 2.45436475,9.87533572 C2.45436475,9.09035622 1.81801313,8.4540046 1.03303362,8.4540046 L1.03303362,8.4540046 Z" id="形状" fill="#7B365D"></path>
                <path d="M4.17038023,8.30517411 C5.03673458,8.30517411 5.73905354,9.00749308 5.73905354,9.87384742 C5.73905354,10.7402018 5.03673458,11.4425207 4.17038023,11.4425207 C3.30402589,11.4425207 2.60170693,10.7402018 2.60170693,9.87384742 C2.60170693,9.00749308 3.30402589,8.30517411 4.17038023,8.30517411 L4.17038023,8.30517411 Z" id="路径" fill="#FF9327"></path>
                <path d="M4.17038023,11.5943278 C3.22182908,11.5943278 2.45287644,10.8253752 2.45287644,9.87682403 C2.45287644,8.92827288 3.22182908,8.15932024 4.17038023,8.15932024 C5.11893138,8.15932024 5.88788402,8.92827288 5.88788402,9.87682403 C5.88624552,10.8246957 5.11825186,11.5926893 4.17038023,11.5943278 Z M4.17038023,8.45698121 C3.38622269,8.45698121 2.75053741,9.09266649 2.75053741,9.87682403 C2.75053741,10.6609816 3.38622269,11.2966669 4.17038023,11.2966669 C4.95453777,11.2966669 5.59022305,10.6609816 5.59022305,9.87682403 C5.59022305,9.09218353 4.95501902,8.45564611 4.17038023,8.4540046 L4.17038023,8.45698121 Z" id="形状" fill="#7B365D"></path>
                <path d="M7.47144038,8.29624428 L7.47144038,11.4365675 C6.90083835,11.4851441 6.3491077,11.2189208 6.03205618,10.7420302 C5.71500466,10.2651395 5.68302066,9.6533728 5.94861462,9.14602065 C6.21420858,8.6386685 6.73517016,8.31636344 7.30772685,8.30517411 L7.46251055,8.30517411 L7.47144038,8.29624428 Z" id="路径" fill="#FF9327"></path>
                <path d="M7.31070346,11.5943278 C6.3621523,11.5943278 5.59319966,10.8253752 5.59319966,9.87682403 C5.59319966,8.92827288 6.3621523,8.15932024 7.31070346,8.15932024 L7.37023565,8.15932024 C7.40982406,8.15534145 7.44971163,8.15534145 7.48930004,8.15932024 L7.62324747,8.15932024 L7.62324747,11.5705149 L7.48930004,11.5705149 C7.43021867,11.5815293 7.37060669,11.5894775 7.31070346,11.5943278 Z M7.31070346,8.45698121 C6.72591633,8.45931574 6.20237553,8.81995515 5.99178619,9.36551317 C5.78119684,9.9110712 5.92663923,10.529943 6.35818835,10.9245906 C6.62220168,11.1654742 6.96824192,11.2964371 7.3255865,11.2907136 L7.3255865,8.4540046 L7.31070346,8.45698121 Z" id="形状" fill="#7B365D"></path>
                <path d="M2.61063676,6.73650081 C3.4769911,6.73650081 4.17931006,7.43881977 4.17931006,8.30517411 C4.17931006,9.17152846 3.4769911,9.87384742 2.61063676,9.87384742 C1.74428241,9.87384742 1.04196345,9.17152846 1.04196345,8.30517411 C1.04196345,7.43881977 1.74428241,6.73650081 2.61063676,6.73650081 L2.61063676,6.73650081 Z" id="路径" fill="#FF9F48"></path>
                <path d="M2.61063676,10.0316077 C1.91597132,10.0316077 1.28970711,9.61315137 1.02387016,8.97136419 C0.758033201,8.32957701 0.904975535,7.59084801 1.39617818,7.09964537 C1.88738082,6.60844272 2.62610982,6.46150039 3.267897,6.72733734 C3.90968418,6.9931743 4.32814055,7.6194385 4.32814055,8.31410394 C4.32650204,9.26197557 3.55850839,10.0299692 2.61063676,10.0316077 L2.61063676,10.0316077 Z M2.61063676,6.89426112 C1.82647922,6.89426112 1.19079393,7.5299464 1.19079393,8.31410394 C1.19079393,9.09826148 1.82647922,9.73394676 2.61063676,9.73394676 C3.39479429,9.73394676 4.03049206,9.09826148 4.03049206,8.31410394 C4.03206146,7.93623362 3.88326488,7.57325446 3.61690679,7.30522117 C3.35054871,7.03718787 2.98850957,6.88611851 2.61063676,6.88533129 L2.61063676,6.89426112 Z" id="形状" fill="#7B365D"></path>
                <path d="M5.74798337,6.73650081 C6.3824525,6.73650081 6.95444771,7.11869579 7.19724853,7.70486883 C7.44004935,8.29104187 7.30584032,8.96575622 6.8572029,9.41439365 C6.40856548,9.86303107 5.73385112,9.9972401 5.14767808,9.75443927 C4.56150504,9.51163845 4.17931006,8.93964324 4.17931006,8.30517411 C4.17931006,7.43881977 4.88162902,6.73650081 5.74798337,6.73650081 L5.74798337,6.73650081 Z" id="路径" fill="#FF9F48"></path>
                <path d="M5.74798337,10.0316077 C5.05331793,10.0316077 4.42705372,9.61315137 4.16121677,8.97136419 C3.89537981,8.32957701 4.04232215,7.59084801 4.53352479,7.09964537 C5.02472743,6.60844272 5.76345643,6.46150039 6.40524361,6.72733734 C7.04703079,6.9931743 7.46548716,7.6194385 7.46548716,8.31410394 C7.46384866,9.26197557 6.695855,10.0299692 5.74798337,10.0316077 L5.74798337,10.0316077 Z M5.74798337,6.89426112 C4.96382583,6.89426112 4.32814055,7.5299464 4.32814055,8.31410394 C4.32814055,9.09826148 4.96382583,9.73394676 5.74798337,9.73394676 C6.53214091,9.73394676 7.16783868,9.09826148 7.16783868,8.31410394 C7.16940807,7.93623362 7.0206115,7.57325446 6.75425341,7.30522117 C6.48789532,7.03718787 6.12585618,6.88611851 5.74798337,6.88533129 L5.74798337,6.89426112 Z" id="形状" fill="#7B365D"></path>
                <path d="M2.60170693,6.73650081 C2.60172091,7.59937978 1.90482844,8.30026209 1.04196345,8.30517411 L0.896109574,8.30517411 L0.896109574,7.83486978 C0.897181304,6.93160973 1.45992154,6.12430306 2.30702257,5.81077519 C2.50235428,6.07974739 2.60664464,6.40409041 2.60468354,6.73650081 L2.60170693,6.73650081 Z" id="路径" fill="#FFB564"></path>
                <path d="M1.04196345,8.4540046 L0.73834926,8.4540046 L0.73834926,7.85868266 C0.738675458,7.58546868 0.787037477,7.31443987 0.881226525,7.05797465 C0.998670388,6.74213353 1.18354168,6.45568461 1.42296949,6.21857072 C1.65662258,5.98557442 1.93788811,5.80584879 2.24749037,5.69171081 L2.35167171,5.65301488 L2.41715713,5.74231317 C2.62586595,6.03182509 2.73832091,6.37960246 2.73863097,6.73650081 C2.73550028,7.67565704 1.98101152,8.43941145 1.04196345,8.4540046 L1.04196345,8.4540046 Z M2.23260732,5.99234838 C2.00529339,6.09120442 1.79836721,6.23151046 1.62240234,6.40609713 C1.41468244,6.6122686 1.25421625,6.86109275 1.15209801,7.13536651 C1.06990771,7.35841582 1.02759047,7.5941833 1.0270804,7.83189317 L1.0270804,8.15634363 C1.80755706,8.14983254 2.43773827,7.51699793 2.44097,6.73650081 C2.44481365,6.47475203 2.37576155,6.21709493 2.24153715,5.99234838 L2.23260732,5.99234838 Z" id="形状" fill="#7B365D"></path>
                <path d="M5.73905558,6.73650081 C5.73905558,7.59937978 5.04217506,8.30026209 4.17931006,8.30517462 C3.55707653,8.30567235 2.99336842,7.93834607 2.74251156,7.36892035 C2.4916547,6.79949462 2.60107623,6.13562539 3.02140889,5.67682776 L5.3282814,5.67682776 C5.59309625,5.96613528 5.73968627,6.34429506 5.73905558,6.73650081 L5.73905558,6.73650081 Z" id="路径" fill="#FFB564"></path>
                <path d="M4.17931006,8.4540046 C3.49238848,8.46182175 2.86688629,8.05956448 2.58902522,7.43130053 C2.31116416,6.80303658 2.43440113,6.06963591 2.9023445,5.5666932 L2.94401704,5.51906744 L5.39376682,5.51906744 L5.43841596,5.5666932 C5.89802594,6.06782274 6.01871033,6.79292337 5.74619552,7.41590638 C5.47368072,8.03888939 4.85928448,8.44243975 4.17931006,8.44507477 L4.17931006,8.4540046 Z M3.07796448,5.82565824 C2.59743684,6.40251591 2.64905813,7.25376645 3.19577145,7.76833046 C3.74248477,8.28289447 4.59529908,8.28289447 5.1420124,7.76833046 C5.68872572,7.25376645 5.74034702,6.40251591 5.25981938,5.82565824 L3.07796448,5.82565824 Z" id="形状" fill="#7B365D"></path>
                <path d="M7.47144038,7.83486978 L7.47144038,8.29624428 L7.31665667,8.29624428 C6.75129739,8.29433976 6.23070076,7.98835954 5.95399372,7.49534031 C5.67728668,7.00232108 5.68728292,6.39854562 5.98015892,5.91495653 C6.02000496,5.84874267 6.10258385,5.82206334 6.17363855,5.85244773 C6.7167954,6.08686483 7.14050088,6.53315359 7.34642277,7.08774075 C7.43496564,7.3279182 7.48031378,7.58186779 7.48037021,7.83784639 L7.47144038,7.83486978 Z" id="路径" fill="#FFB564"></path>
                <path d="M7.31963328,8.4540046 C6.69493091,8.45830151 6.1171603,8.12305516 5.8108857,7.57856697 C5.50461109,7.03407878 5.518139,6.36622702 5.84621149,5.83458807 C5.92267718,5.70347738 6.08554563,5.6508978 6.22424092,5.71254707 C6.49075617,5.82659701 6.73318171,5.99023425 6.93862724,6.19475784 C7.17812969,6.43181116 7.36301228,6.7182776 7.48037021,7.03416178 C7.54724291,7.21346334 7.59124673,7.40047955 7.61134103,7.59078779 C7.61553838,7.67110145 7.61553838,7.75157951 7.61134103,7.83189317 L7.61134103,8.42721511 L7.4773936,8.42721511 L7.31963328,8.4540046 Z M6.10815314,5.98639516 C5.96530912,6.20932734 5.88985773,6.46875607 5.89085076,6.7335242 C5.892498,7.51700251 6.52722514,8.15172965 7.31070346,8.15336702 L7.31070346,7.83486978 C7.31435678,7.76447072 7.31435678,7.69392956 7.31070346,7.62353049 C7.2953189,7.45797147 7.2593211,7.29498142 7.20354551,7.13834311 C7.10142726,6.86406936 6.94096108,6.61524521 6.73324118,6.40907374 C6.55269986,6.22948679 6.33952782,6.08602504 6.10517653,5.98639516 L6.10815314,5.98639516 Z" id="形状" fill="#7B365D"></path>
                <path d="M4.09298838,5.67682776 C3.87499427,6.31231602 3.27651911,6.73843033 2.60468354,6.73650733 C2.20403169,6.73474457 1.81935884,6.57917051 1.53012744,6.30191579 C1.74903164,6.0849581 2.01192529,5.91747759 2.30106935,5.81077519 L2.35762493,5.78993893 C2.52422515,5.73321146 2.69717852,5.69722116 2.87257841,5.68278098 L4.0989416,5.68278098 L4.09298838,5.67682776 Z" id="路径" fill="#FFC48A"></path>
                <path d="M2.61063676,6.88533501 C2.16715191,6.886254 1.74050073,6.71559353 1.41999288,6.40907374 L1.30985832,6.3048924 L1.41999288,6.19773445 C1.65364597,5.96473815 1.9349115,5.78501253 2.24451376,5.67087454 L2.30404596,5.65003827 C2.48231366,5.5900548 2.66724051,5.55206982 2.85471875,5.5369271 L4.30135106,5.5369271 L4.23288904,5.73338334 C3.99226146,6.42337688 3.34138477,6.88555905 2.61063676,6.88533501 L2.61063676,6.88533501 Z M1.75039655,6.29000935 C2.08307783,6.54389977 2.5108213,6.63809324 2.91937664,6.54743068 C3.32793199,6.45676811 3.67568201,6.1904848 3.86974265,5.81970502 L2.87853163,5.81970502 C2.71538227,5.83280581 2.55444496,5.86579296 2.39929747,5.91793314 L2.3486951,5.9357928 C2.12957613,6.01961332 1.92701991,6.14155015 1.75039655,6.29596257 L1.75039655,6.29000935 Z" id="形状" fill="#7B365D"></path>
                <path d="M6.8314693,6.30191579 C6.54000687,6.58130211 6.15172434,6.73704181 5.74798337,6.73650733 C5.07614779,6.73843033 4.47767264,6.31231602 4.25967852,5.67682776 L5.5128312,5.67682776 C5.68738702,5.69223217 5.85935852,5.72922604 6.02480807,5.78696232 L6.04564434,5.78696232 C6.34068044,5.89341588 6.60888156,6.06307341 6.8314693,6.28405613 L6.8314693,6.30191579 Z" id="路径" fill="#FFC48A"></path>
                <path d="M5.74798337,6.88533129 C5.01438503,6.88370357 4.362218,6.41786998 4.12275448,5.72445351 L4.05429245,5.52799727 L5.52771425,5.52799727 C5.71446772,5.54509965 5.89841171,5.58508747 6.07541043,5.64706166 C6.39919131,5.76114564 6.69389955,5.94508423 6.93862724,6.18582801 L7.04578519,6.29298596 L6.93565063,6.3971673 C6.61829306,6.70812296 6.19228598,6.88322361 5.74798337,6.88533129 L5.74798337,6.88533129 Z M4.48887747,5.82565824 C4.68239172,6.19692133 5.02989593,6.46385249 5.43850081,6.55509992 C5.84710569,6.64634736 6.27515287,6.55260816 6.60822357,6.29893918 C6.42641282,6.14549519 6.21879502,6.02556063 5.99504197,5.94472263 C5.83460514,5.88735585 5.6676017,5.85035509 5.49794815,5.83458807 L5.32530479,5.83458807 L4.48887747,5.82565824 Z M5.53069086,11.8175735 C5.50914243,11.8952517 5.52331114,11.9784913 5.56934554,12.0446658 C5.61537994,12.1108402 5.68849631,12.1530729 5.76881964,12.1598837 C5.86938903,12.166579 5.96564981,12.1180837 6.02012257,12.0332795 C6.07459533,11.9484753 6.07867046,11.8407659 6.03076129,11.7520881 C5.97908808,11.6514963 5.86981402,11.5941867 5.75768364,11.6088704 C5.64555326,11.6235542 5.5547204,11.7070683 5.53069086,11.8175735 Z M2.61063676,12.1628603 C2.70140765,12.1617949 2.78575153,12.1158176 2.83583014,12.0401036 C2.88590875,11.9643895 2.89521301,11.8687797 2.86067197,11.7848308 C2.82198413,11.6793066 2.7215411,11.6091508 2.60914845,11.6091508 C2.4967558,11.6091508 2.39631277,11.6793066 2.35762493,11.7848308 C2.32590737,11.8692876 2.33685809,11.9638561 2.38703717,12.0388295 C2.43721624,12.113803 2.52046652,12.1599819 2.61063676,12.1628603 Z M3.92927485,13.3564808 C3.87608265,13.4714777 3.90872383,13.6079489 4.00819268,13.6864324 C4.10766154,13.7649159 4.24798197,13.7649159 4.34745083,13.6864324 C4.44691968,13.6079489 4.47956086,13.4714777 4.42636867,13.3564808 C4.3855628,13.2550189 4.2871818,13.1885464 4.17782176,13.1885464 C4.06846171,13.1885464 3.97008071,13.2550189 3.92927485,13.3564808 L3.92927485,13.3564808 Z M5.5425973,8.69808659 C5.50224311,8.7841983 5.50945269,8.88508044 5.56164225,8.96457848 C5.6138318,9.04407651 5.70352821,9.09080699 5.79858573,9.08802246 C5.90135176,9.08212708 5.99258222,9.02028229 6.03611193,8.92700434 C6.07964164,8.83372638 6.06844035,8.72408011 6.00694841,8.64153101 C5.94971483,8.56312075 5.85454099,8.52180785 5.75817657,8.53354454 C5.66181214,8.54528123 5.57933695,8.60823087 5.5425973,8.69808659 Z M2.61063676,8.54330289 C2.50796535,8.54623855 2.4153596,8.60578066 2.37007744,8.69797373 C2.32479529,8.7901668 2.33428168,8.89985316 2.39471996,8.98290284 C2.45515824,9.06595252 2.55661163,9.10871114 2.65826251,9.09397568 C2.80343149,9.07293177 2.90698306,8.94230273 2.89434386,8.79616195 C2.88170466,8.65002116 2.75726316,8.53911044 2.61063676,8.54330289 L2.61063676,8.54330289 Z M4.18228667,7.43302747 C4.26902669,7.43121052 4.3496476,7.38795383 4.39912355,7.31668489 C4.44859951,7.24541596 4.4609428,7.15475993 4.43232189,7.0728577 C4.38709376,6.94345211 4.25231918,6.86823443 4.11843702,6.89767859 C3.98455487,6.92712275 3.89377444,7.05194584 3.90701287,7.18838679 C3.92025131,7.32482775 4.0333349,7.42987055 4.17038023,7.43302747 L4.18228667,7.43302747 Z M4.18823989,10.5108419 C4.34112595,10.5108419 4.46506459,10.3869033 4.46506459,10.2340172 C4.46506459,10.0811311 4.34112595,9.95719249 4.18823989,9.95719249 C4.03535383,9.95719249 3.91141519,10.0811311 3.91141519,10.2340172 C3.91141519,10.3869033 4.03535383,10.5108419 4.18823989,10.5108419 Z" id="形状" fill="#7B365D"></path>
            </g>
        </g>
    </g>
</svg>