<?xml version="1.0" encoding="UTF-8"?>
<svg width="13px" height="17px" viewBox="0 0 13 17" version="1.1" xmlns="http://www.w3.org/2000/svg" xmlns:xlink="http://www.w3.org/1999/xlink">
    <title>TL_11</title>
    <g id="页面-1" stroke="none" stroke-width="1" fill="none" fill-rule="evenodd">
        <g id="切图" transform="translate(-1138.000000, -687.000000)" fill="#FAA729" fill-rule="nonzero">
            <g id="TL_11" transform="translate(1138.819558, 687.049876)">
                <path d="M1.7790957,9.21792672 L3.75000465,9.26148168 L3.68894993,12.1164165 L1.94687565,12.0803125 L1.7790957,9.21792672 L1.7790957,9.21792672 Z M5.74905324,16.089034 L2.17837031,16.0125639 L1.98882842,12.793914 L3.67407902,12.8289602 L3.65177266,13.9020146 C3.83177912,15.2145436 4.70678286,14.6373936 4.70678286,14.6373936 L4.73705356,13.2091173 L6.16532984,13.2388591 L5.74905324,16.089034 L5.74905324,16.089034 Z M6.27151064,12.5284465 L4.75351112,12.4960447 L4.81350809,9.63844993 L6.68831612,9.67932938 L6.27151064,12.5284465 L6.27151064,12.5284465 Z M12,7.64789457 C10.9242856,6.46491054 8.81638073,6.151657 8.81638073,6.151657 C9.74556374,7.33355216 10.4957981,11.1877779 10.4957981,11.1877779 C9.73280838,10.636652 7.71571559,7.55868466 7.71571559,7.55868468 C7.31272325,6.89234033 7.00264299,7.542756 7.00264299,7.542756 L6.79291027,8.96625678 L4.82943676,8.92590621 L4.83634334,8.57015547 C4.99563007,6.69694963 4.51776985,6.77553524 4.51776985,6.77553524 C3.50152357,6.90296462 3.77973093,7.8321321 3.77973093,7.8321321 L3.76487557,8.54627801 L1.73768737,8.50379636 L1.65325295,7.07233123 C1.67131271,6.23926469 1.32671514,5.63663504 1.32671514,5.63663504 C-1.25425892,2.42700724 0.725687687,0.266540845 0.725687687,0.266540845 C1.03894123,2.3558571 1.74352062,2.78751793 1.74352062,2.78751795 C2.27341346,3.09706932 2.45766654,2.80344662 2.45766654,2.80344661 C3.30398623,0.767765202 5.01844977,0 5.01844977,0 C3.48080386,2.28948244 4.24377801,2.84168165 4.24377799,2.84168165 C7.50970058,0.409370037 9.28734994,0.80492692 9.28734994,0.80492692 C5.5260518,2.72011663 5.64976347,3.94342013 5.64976347,3.94342013 C10.1113788,1.20952146 11.027822,2.9839664 11.027822,2.9839664 C9.65795604,3.01531042 8.49780724,4.36021005 8.49780726,4.36021005 C11.9808825,5.71414734 12,7.64789457 12,7.64789457 Z" id="形状"></path>
            </g>
        </g>
    </g>
</svg>