<?xml version="1.0" encoding="UTF-8"?>
<svg width="14px" height="16px" viewBox="0 0 14 16" version="1.1" xmlns="http://www.w3.org/2000/svg" xmlns:xlink="http://www.w3.org/1999/xlink">
    <title>TL_12</title>
    <g id="页面-1" stroke="none" stroke-width="1" fill="none" fill-rule="evenodd">
        <g id="切图" transform="translate(-1135.000000, -656.000000)" fill-rule="nonzero">
            <g id="TL_12" transform="translate(1135.617435, 656.672146)">
                <path d="M9.69357245,3.42744037 C10.090769,3.35419845 10.4344426,3.62463014 10.464021,3.64716612 C10.8612176,3.96830375 10.890796,4.50635013 10.904881,4.74720334 C10.910515,4.85988321 10.9091065,4.97397158 10.9006555,5.08946845 C10.9429105,5.01622653 10.9823484,4.94157611 11.0161524,4.86551721 C11.1147473,4.64297447 11.4654634,3.74857801 12.1302746,3.62744714 C12.3133794,3.59364317 12.4852162,3.62463014 12.628883,3.67533608 C12.6190235,3.6584341 12.6105725,3.64153212 12.6007131,3.62463015 C12.3485919,3.20208064 12.0204117,2.92460647 11.9035064,2.82742007 C11.4387019,2.44008301 11.2443291,2.49360596 10.907698,2.13021338 C10.5992369,1.79780777 10.4654295,1.43582369 10.4090896,1.23299993 C10.2597888,0.699179056 10.3513412,0.247051074 10.4090896,0.0371848149 C10.2372528,0.00338085102 9.80343531,-0.0600015742 9.31327788,0.137188206 C8.8780519,0.310433499 8.62170519,0.596358663 8.51325081,0.735800007 C8.83016294,1.07524812 9.05552268,1.39075174 9.2104575,1.63301347 C9.48934018,2.06964795 9.57103308,2.31613518 9.60906254,2.53022691 C9.644275,2.72600819 9.67244496,2.86967502 9.60906254,3.02883534 C9.54427161,3.18940415 9.40342178,3.33166248 9.2104575,3.52744376 C9.12876459,3.60913667 9.0414377,3.69082958 9.01185924,3.8260454 C9.00059124,3.87675135 8.99918276,3.92182329 9.00199974,3.95703576 C9.16538556,3.71477404 9.39356229,3.4823718 9.69357245,3.42744037 Z" id="路径" fill="#C0CA33"></path>
                <path d="M9.60906254,0.835803384 L10.4062726,0.0385933157 C10.2344358,0.00478935186 9.80061833,-0.0585930734 9.31046089,0.138596692 C8.93439183,0.289306015 8.69213011,0.524525247 8.56395676,0.67523457 L9.60906254,0.835803384 Z" id="路径" fill="#827717"></path>
                <path d="M12.9979096,5.22045879 C12.9838246,4.81903675 12.9570632,4.25563741 12.6274745,3.67674458 C12.4852162,3.62603864 12.3119709,3.59505167 12.1288661,3.62885564 C11.4640549,3.751395 11.1119303,4.64438296 11.0147439,4.8669257 C10.9809399,4.9429846 10.941502,5.01763502 10.899247,5.09087694 C10.7668482,6.81206194 9.04848019,8.76142367 8.59353522,9.26003209 C8.14281574,9.75441501 7.42025609,10.5389486 6.28218941,11.3516522 C4.61030185,12.5446503 2.96799276,13.1404451 1.2200463,13.7728608 C1.1284939,13.8052563 0.994686555,13.8897662 0.838343243,13.9855441 L0.841160231,13.9897696 L0.841160231,14.2897797 C1.02285652,14.3503452 1.20032731,14.3742896 1.33976866,14.3883746 C2.50037131,14.50528 3.57646405,14.2996392 3.6313955,14.2883712 C4.42719708,14.1306194 5.16525021,13.9841356 6.12302909,13.5911646 C7.70336425,12.9404383 8.73156806,12.0868883 9.31186938,11.5981394 C10.3710602,10.7037429 11.0344629,9.8656864 11.3048946,9.5051108 C11.7795585,8.87551204 12.3302814,8.1304164 12.6993079,7.0134772 C13.0119946,6.0669663 13.0049521,5.42750805 12.9979096,5.22045879 Z" id="路径" fill="#FFCA28"></path>
                <path d="M10.904881,4.74861184 C10.8922046,4.50775861 10.8626261,3.96830375 10.464021,3.64857462 C10.4344426,3.62463015 10.090769,3.35560697 9.69357245,3.42884887 C9.3935623,3.48378031 9.16538556,3.71618254 9.00199974,3.95703576 C9.00481675,3.99224822 9.01045074,4.01760118 9.01185924,4.02464369 C9.03580371,4.14154904 9.01185924,5.2148248 8.01605089,6.61487217 C7.5737824,7.23601994 7.08080798,7.72476888 6.62586301,8.10224644 C6.08781663,8.55014892 5.6032932,8.84170809 5.32581902,9.00650239 C4.88214203,9.26848308 4.7412922,9.30510405 3.94830762,9.68962409 C3.61590202,9.8516014 3.16940802,10.0741441 2.53558377,10.4009158 C2.335577,10.5037361 1.66090628,10.8586777 0.941163621,11.4967275 C0.553826566,11.8404011 0.174940515,12.2474571 0.0439501623,12.792546 C0.0340906705,12.8348009 0.0256396795,12.8756474 0.0200056902,12.9136768 C0.000286706574,13.0348077 -0.00253028102,13.1390366 0.00169520742,13.2263635 L0.731297362,13.7883543 L0.839751744,13.9841356 C0.996095056,13.8883577 1.12990241,13.8038478 1.2214548,13.7714523 C2.96940126,13.1390366 4.61311885,12.5432418 6.28359791,11.3502437 C7.42166459,10.5375401 8.14422424,9.75441503 8.59494372,9.25862359 C9.04848019,8.76142367 10.7668482,6.81206194 10.899247,5.09087694 C10.9091065,4.97538006 10.910515,4.86129171 10.904881,4.74861184 Z" id="路径" fill="#FFE082"></path>
                <path d="M0.838343243,13.9855441 L0.729888861,13.7897628 L0.000286706574,13.227772 C0.0143716868,13.3150989 0.0284566671,13.4038343 0.0425416614,13.4911612 L0.0425416614,13.5911646 C0.108741088,13.6911679 0.174940501,13.7897628 0.241139928,13.8897662 L0.341143319,13.9897696 C0.410159733,14.044701 0.479176162,14.0996325 0.549601077,14.1545639 C0.580588039,14.1658319 0.610166501,14.1770999 0.641153463,14.1883679 L0.839751744,14.2897797 C0.839751744,14.1883679 0.838343243,14.086956 0.838343243,13.9855441 L0.838343243,13.9855441 Z" id="路径" fill="#5D4037"></path>
            </g>
        </g>
    </g>
</svg>