# 3ds Max Wavefront OBJ Exporter v0.97b - (c)2007 guruware
# 创建的文件:22.08.2023 09:06:27

mtllib 20.mtl

#
# object JZ_JX_01
#

v  -60826.640625 266.367188 -31139.726563
v  -55040.589844 266.367188 -29551.761719
v  -55329.894531 3416.367188 -29631.160156
v  -60537.339844 3416.367188 -31060.328125
v  -55065.234375 216.368164 -30595.500000
v  -60272.679688 216.368164 -32024.667969
v  -60537.339844 216.367188 -31060.328125
v  -55329.894531 216.367188 -29631.160156
v  -55065.234375 3416.367676 -30595.500000
v  -60272.679688 3416.367188 -32024.667969
v  -54114.281250 216.367188 -32926.957031
v  -54775.929688 216.367188 -30516.101563
v  -54114.281250 3716.366699 -32926.957031
v  -54775.929688 3716.366699 -30516.101563
v  -59900.328125 216.367188 -34514.921875
v  -59900.328125 3716.366211 -34514.921875
v  -60561.980469 3716.366699 -32104.066406
v  -54810.914063 3716.366211 -30577.552734
v  -60500.531250 3716.366211 -32139.050781
v  -59865.343750 3716.366211 -34453.468750
v  -54175.730469 3716.366211 -32891.968750
v  -60561.980469 216.367188 -32104.066406
v  -54810.914063 3566.366211 -30577.552734
v  -60500.531250 3566.366211 -32139.050781
v  -59865.343750 3566.366211 -34453.468750
v  -54175.730469 3566.366211 -32891.968750
v  -55040.589844 216.367188 -29551.761719
v  -60826.640625 216.367188 -31139.726563
v  -55041.722656 13425.238281 -29552.070313
v  -60827.769531 13425.238281 -31140.035156
v  -55041.722656 15266.367188 -29552.070313
v  -60827.769531 15266.369141 -31140.035156
v  -58669.460938 1287.187988 -27333.066406
v  -60405.312500 1287.187988 -27809.464844
v  -61509.425781 15266.367188 -28656.292969
v  -61509.425781 13425.234375 -28656.292969
v  -61410.023438 13425.234375 -29018.484375
v  -61410.023438 15266.367188 -29018.484375
v  -60827.769531 266.370605 -31140.035156
v  -61648.218750 266.370605 -28150.578125
v  -61648.218750 15266.367188 -28150.578125
v  -55723.378906 15266.367188 -27068.328125
v  -55723.378906 13425.234375 -27068.328125
v  -55623.976563 13425.234375 -27430.519531
v  -55623.976563 15266.367188 -27430.519531
v  -55041.722656 266.370605 -29552.070313
v  -55862.171875 266.370605 -26562.613281
v  -55862.171875 15266.367188 -26562.613281
v  -55331.023438 266.372070 -29631.468750
v  -55331.023438 3416.370117 -29631.468750
v  -60538.468750 3416.370605 -31060.638672
v  -60538.468750 266.372070 -31060.638672
v  -58670.062500 266.370605 -27333.230469
v  -60405.878906 266.370605 -27809.619141
v  -55041.722656 15266.367188 -29552.070313
v  -60827.769531 15266.369141 -31140.035156
v  -61509.425781 15266.367188 -28656.292969
v  -61509.425781 13425.234375 -28656.292969
v  -61410.023438 13425.234375 -29018.484375
v  -61410.023438 15266.367188 -29018.484375
v  -61648.218750 15266.367188 -28150.578125
v  -55723.378906 15266.367188 -27068.328125
v  -55723.378906 13425.234375 -27068.328125
v  -55623.976563 13425.234375 -27430.519531
v  -55623.976563 15266.367188 -27430.519531
v  -55862.171875 15266.367188 -26562.613281
v  -55897.156250 15266.367188 -26624.062500
v  -61586.769531 15266.367188 -28185.562500
v  -61474.441406 15266.367188 -28594.841797
v  -55784.828125 15266.367188 -27033.343750
v  -55658.960938 15266.367188 -27491.970703
v  -61348.574219 15266.367188 -29053.468750
v  -60792.789063 15266.367188 -31078.585938
v  -55103.171875 15266.367188 -29517.085938
v  -55897.156250 15066.367188 -26624.062500
v  -61586.769531 15066.367188 -28185.562500
v  -61474.441406 15066.367188 -28594.841797
v  -55784.828125 15066.367188 -27033.343750
v  -55658.960938 14966.367188 -27491.970703
v  -61348.574219 14966.367188 -29053.468750
v  -60792.789063 14966.367188 -31078.585938
v  -55103.171875 14966.367188 -29517.085938
v  -55041.722656 15266.367188 -29552.070313
v  -60827.769531 15266.369141 -31140.035156
v  -60827.769531 266.370605 -31140.035156
v  -55041.722656 266.370605 -29552.070313
# 86 vertices

vn -0.964410 0.000000 -0.264410
vn -0.964215 0.000000 -0.265121
vn 0.964322 0.000000 0.264731
vn 0.964215 0.000000 0.265121
vn 0.964020 0.000000 0.265831
vn 0.264731 0.000000 -0.964322
vn 0.265440 0.000000 -0.964127
vn 0.000000 1.000000 -0.000000
vn -0.964020 0.000000 -0.265831
vn 0.265245 0.000000 -0.964181
vn 0.964410 0.000000 0.264410
vn -0.265440 0.000000 0.964127
vn -0.964127 0.000000 -0.265440
vn -0.964322 0.000000 -0.264731
vn 0.264021 0.000000 -0.964517
vn 0.264216 0.000000 -0.964464
vn 0.964517 0.000000 0.264021
vn -0.264021 0.000000 0.964517
vn -0.264216 0.000000 0.964464
vn -0.265635 0.000000 0.964074
# 20 vertex normals

vt 0.434124 0.029687 0.000000
vt 0.516469 0.029687 0.000000
vt 0.516469 0.229687 0.000000
vt 0.434124 0.229687 0.000000
vt 0.483531 0.029687 0.000000
vt 0.565876 0.029687 0.000000
vt 0.565876 0.229687 0.000000
vt 0.483531 0.229687 0.000000
vt 0.771739 0.029687 0.000000
vt 0.771739 0.248437 0.000000
vt 0.565876 0.248437 0.000000
vt 0.264151 0.029687 0.000000
vt 0.735757 0.029687 0.000000
vt 0.735757 0.248437 0.000000
vt 0.264151 0.248437 0.000000
vt -2.449415 1.350001 0.000000
vt -2.449415 3.750000 0.000000
vt 3.500586 3.800000 0.000000
vt -2.499414 3.800001 0.000000
vt -2.499414 1.300001 0.000000
vt 3.450585 1.349999 0.000000
vt 3.450585 3.750000 0.000000
vt 3.500586 1.300000 0.000000
vt 0.228261 0.029687 0.000000
vt 0.434124 0.248437 0.000000
vt 0.228261 0.248437 0.000000
vt -2.450585 -3.675004 0.000000
vt 3.449415 -3.675004 0.000000
vt 3.449415 -3.525004 0.000000
vt -2.450585 -3.525004 0.000000
vt 1.350001 -3.675004 0.000000
vt 3.750000 -3.675004 0.000000
vt 3.750000 -3.525004 0.000000
vt 1.350001 -3.525004 0.000000
vt -2.449415 -3.675004 0.000000
vt 3.450585 -3.675004 0.000000
vt 3.450585 -3.525004 0.000000
vt -2.449415 -3.525004 0.000000
vt -2.750000 -3.675004 0.000000
vt -0.349999 -3.675004 0.000000
vt -0.349999 -3.525004 0.000000
vt -2.750000 -3.525004 0.000000
vt -2.199415 1.300001 0.000000
vt -2.199415 0.300001 0.000000
vt 3.200585 0.300000 0.000000
vt 3.200585 1.300000 0.000000
vt 0.712269 0.229687 0.000000
vt 0.712269 0.029687 0.000000
vt 0.735849 0.029687 0.000000
vt 0.735849 0.248437 0.000000
vt 0.264243 0.248437 0.000000
vt 0.264243 0.029687 0.000000
vt 0.287823 0.029687 0.000000
vt 0.287823 0.229687 0.000000
vt -2.500586 -7.025003 0.000000
vt 3.499414 -7.025003 0.000000
vt 3.499414 -6.975003 0.000000
vt -2.500586 -6.975003 0.000000
vt 0.264243 0.855242 0.000000
vt 0.735849 0.855242 0.000000
vt 0.735849 0.970313 0.000000
vt 0.264243 0.970312 0.000000
vt 0.771739 0.970312 0.000000
vt 0.728556 0.970312 0.000000
vt 0.728556 0.855242 0.000000
vt 0.771739 0.032813 0.000000
vt 0.697628 0.855242 0.000000
vt 0.697628 0.970312 0.000000
vt 0.516469 0.970313 0.000000
vt 0.516469 0.032813 0.000000
vt 0.271444 0.855242 0.000000
vt 0.271444 0.970312 0.000000
vt 0.228261 0.970312 0.000000
vt 0.228261 0.032813 0.000000
vt 0.483531 0.970312 0.000000
vt 0.302372 0.970312 0.000000
vt 0.302372 0.855242 0.000000
vt 0.483531 0.032813 0.000000
vt 0.712269 0.229688 0.000000
vt 0.712269 0.032813 0.000000
vt 0.735849 0.032813 0.000000
vt 0.264243 0.032813 0.000000
vt 0.287823 0.032813 0.000000
vt 0.287823 0.229688 0.000000
vt 0.506942 0.096614 0.000000
vt 0.506893 0.032813 0.000000
vt 0.735757 0.032813 0.000000
vt 0.735757 0.970312 0.000000
vt 0.264151 0.032813 0.000000
vt 0.365411 0.032813 0.000000
vt 0.365457 0.096614 0.000000
vt 0.264151 0.970312 0.000000
vt 0.735849 0.970312 0.000000
vt -2.450588 -2.749999 0.000000
vt -2.450588 -2.325585 0.000000
vt 3.449412 -2.325587 0.000000
vt -2.500589 -2.275585 0.000000
vt -2.500589 -2.799999 0.000000
vt 3.449412 -2.750001 0.000000
vt 3.499413 -2.275587 0.000000
vt 3.499413 -2.800001 0.000000
vt 0.264151 0.855242 0.000000
vt 0.735757 0.855242 0.000000
vt -2.450586 -1.849999 0.000000
vt -2.450586 0.250001 0.000000
vt -2.500587 -1.899999 0.000000
vt 3.499413 -1.900001 0.000000
vt 3.449412 -1.850000 0.000000
vt 3.499413 0.300000 0.000000
vt 3.449413 0.250000 0.000000
vt -2.500587 0.300001 0.000000
vt -2.449412 7.824999 0.000000
vt 3.450588 7.824999 0.000000
vt 3.450588 8.025000 0.000000
vt -2.449412 8.025000 0.000000
vt -2.749999 7.824999 0.000000
vt -2.325585 7.824999 0.000000
vt -2.325585 8.025000 0.000000
vt -2.749999 8.025000 0.000000
vt -2.450588 7.824999 0.000000
vt 3.449412 7.824999 0.000000
vt 3.449412 8.025000 0.000000
vt -2.450588 8.025000 0.000000
vt 3.325587 7.824999 0.000000
vt 3.750001 7.824999 0.000000
vt 3.750001 8.025000 0.000000
vt 3.325587 8.025000 0.000000
vt -2.449412 7.724999 0.000000
vt 3.450586 7.724999 0.000000
vt 3.450586 8.025000 0.000000
vt -1.849999 7.724999 0.000000
vt 0.250001 7.724999 0.000000
vt 0.250001 8.025000 0.000000
vt -1.849999 8.025000 0.000000
vt -2.450586 7.724999 0.000000
vt 3.449413 7.724999 0.000000
vt 3.449413 8.025000 0.000000
vt -2.450586 8.025000 0.000000
vt 0.750000 7.724999 0.000000
vt 2.850000 7.724999 0.000000
vt 2.850000 8.025000 0.000000
vt 0.750000 8.025000 0.000000
# 142 texture coords

o JZ_JX_01
g JZ_JX_01
usemtl Material__1306
s off
f -81/-142/-20 -80/-141/-19 -83/-140/-19 -77/-139/-20 
f -79/-138/-18 -82/-137/-18 -78/-136/-18 -84/-135/-18 
f -75/-137/-17 -76/-134/-16 -74/-133/-16 -73/-132/-17 
f -76/-131/-15 -72/-130/-14 -71/-129/-14 -74/-128/-15 
usemtl Material__26
f -68/-127/-13 -67/-126/-13 -74/-125/-13 -71/-124/-13 
f -68/-127/-13 -71/-124/-13 -70/-123/-13 -69/-122/-13 
f -74/-125/-13 -67/-126/-13 -66/-121/-13 -69/-122/-13 
f -73/-120/-13 -74/-125/-13 -69/-122/-13 -70/-123/-13 
usemtl Material__1306
f -72/-119/-12 -65/-142/-12 -70/-118/-12 -71/-117/-12 
usemtl Material__26
f -64/-116/-11 -63/-115/-11 -68/-114/-11 -69/-113/-11 
f -63/-112/-17 -62/-111/-10 -67/-110/-10 -68/-109/-17 
f -62/-108/-9 -61/-107/-9 -66/-106/-9 -67/-105/-9 
f -61/-104/-8 -64/-103/-7 -69/-102/-7 -66/-101/-8 
f -77/-100/-13 -83/-99/-13 -84/-98/-13 -78/-97/-13 
f -63/-127/-13 -64/-122/-13 -61/-121/-13 -62/-126/-13 
usemtl Material__1306
f -78/-96/-9 -82/-95/-9 -75/-94/-9 -73/-93/-9 
f -70/-92/-9 -65/-91/-9 -81/-90/-9 -77/-89/-9 
f -73/-93/-9 -70/-92/-9 -77/-89/-9 -78/-96/-9 
usemtl Material__26
f -60/-88/-6 -59/-87/-5 -86/-86/-5 -85/-85/-6 
usemtl Material__1306
f -58/-84/-6 -57/-83/-6 -55/-82/-6 -56/-81/-6 
f -46/-80/-7 -52/-79/-7 -51/-78/-7 -47/-77/-7 
f -50/-76/-8 -49/-75/-8 -3/-74/-7 -48/-73/-7 
f -50/-76/-8 -48/-73/-7 -47/-77/-7 -51/-78/-7 
f -44/-72/-18 -45/-71/-18 -39/-70/-18 -40/-69/-18 
f -4/-68/-4 -42/-67/-18 -43/-66/-18 -41/-65/-4 
f -40/-69/-18 -41/-65/-4 -43/-66/-18 -44/-72/-18 
f -36/-64/-5 -35/-63/-5 -2/-62/-6 -57/-83/-6 
f -58/-84/-6 -1/-61/-6 -38/-60/-5 -37/-59/-5 
f -57/-83/-6 -58/-84/-6 -37/-59/-5 -36/-64/-5 
f -54/-58/-3 -34/-57/-3 -40/-56/-3 -39/-55/-3 
f -47/-54/-2 -33/-53/-2 -53/-52/-3 -46/-51/-2 
f -39/-55/-3 -46/-51/-2 -53/-52/-3 -54/-58/-3 
f -24/-84/-5 -29/-83/-5 -30/-50/-5 -25/-81/-5 
usemtl Material__26
f -19/-49/-13 -18/-48/-13 -17/-47/-13 -30/-46/-13 
f -19/-49/-13 -30/-46/-13 -26/-45/-13 -20/-44/-13 
f -25/-43/-13 -30/-46/-13 -17/-47/-13 -20/-44/-13 
f -21/-42/-13 -25/-43/-13 -20/-44/-13 -26/-45/-13 
usemtl Material__1306
f -28/-41/-9 -23/-40/-9 -22/-55/-9 -27/-51/-9 
usemtl Material__26
f -15/-39/-13 -14/-38/-13 -27/-37/-13 -22/-36/-13 
f -16/-35/-13 -15/-39/-13 -22/-36/-13 -32/-34/-13 
f -13/-33/-13 -16/-35/-13 -32/-34/-13 -31/-32/-13 
f -31/-32/-13 -27/-37/-13 -14/-38/-13 -13/-33/-13 
f -12/-31/-6 -11/-30/-6 -19/-29/-6 -20/-28/-6 
f -11/-27/-18 -10/-26/-18 -18/-25/-18 -19/-24/-18 
f -10/-23/-1 -9/-22/-1 -17/-21/-1 -18/-20/-1 
f -9/-19/-19 -12/-18/-20 -20/-17/-20 -17/-16/-19 
f -8/-15/-14 -7/-14/-14 -15/-13/-14 -16/-28/-14 
f -7/-12/-18 -6/-11/-18 -14/-10/-18 -15/-9/-18 
f -6/-8/-3 -5/-7/-3 -13/-6/-3 -14/-5/-3 
f -5/-4/-20 -8/-3/-19 -16/-2/-19 -13/-1/-20 
f -11/-49/-13 -12/-44/-13 -9/-47/-13 -10/-48/-13 
f -6/-38/-13 -7/-39/-13 -8/-35/-13 -5/-33/-13 
f -23/-36/-13 -28/-37/-13 -29/-46/-13 
usemtl Material__1306
f -33/-53/-2 -34/-57/-3 -54/-58/-3 -53/-52/-3 
usemtl Material__26
f -29/-46/-13 -24/-43/-13 -23/-36/-13 
# 53 polygons - 2 triangles

