# 3ds Max Wavefront OBJ Exporter v0.97b - (c)2007 guruware
# 创建的文件:22.08.2023 09:06:45

mtllib 21.mtl

#
# object JZ_JX_09
#

v  -62416.675781 9642.910156 -30975.646484
v  -62707.347656 9642.910156 -31053.722656
v  -62672.027344 9642.910156 -30992.462891
v  -62478.875000 9642.910156 -30940.580078
v  -62468.562500 9642.910156 -30782.492188
v  -62530.761719 9642.910156 -30747.427734
v  -61745.179688 9642.910156 -30588.189453
v  -61709.855469 9642.910156 -30526.929688
v  -61615.472656 9642.910156 -31071.072266
v  -61554.210938 9642.910156 -31106.390625
v  -61808.625000 9642.910156 -31122.953125
v  -61747.363281 9642.910156 -31158.273438
v  -61691.886719 9642.910156 -31557.550781
v  -61656.566406 9642.910156 -31496.292969
v  -61498.738281 9642.910156 -31505.667969
v  -61463.414063 9642.910156 -31444.410156
v  -60474.070313 9642.910156 -35320.449219
v  -60412.812500 9642.910156 -35355.769531
v  -61197.453125 9642.910156 -35514.753906
v  -61233.714844 9642.910156 -35576.261719
v  -61586.566406 9642.921875 -34066.101563
v  -61622.828125 9642.921875 -34127.613281
v  -62600.621094 9642.910156 -34338.480469
v  -62636.882813 9642.910156 -34399.992188
v  -63482.617188 9642.910156 -31054.871094
v  -63544.816406 9642.910156 -31019.806641
v  -62759.234375 9642.910156 -30860.568359
v  -62723.914063 9642.910156 -30799.308594
v  -61181.269531 10314.911133 -35883.328125
v  -61645.570313 10314.911133 -34154.753906
v  -61622.828125 10314.911133 -34127.613281
v  -61145.453125 10314.911133 -35904.851563
v  -62332.457031 10314.911133 -36192.542969
v  -62352.660156 10314.911133 -36229.113281
v  -62796.757813 10314.911133 -34463.968750
v  -62830.035156 10314.911133 -34451.875000
v  -61233.714844 285.014160 -35576.261719
v  -61145.453125 285.014160 -35904.851563
v  -61145.453125 9490.972656 -35904.851563
v  -61233.714844 9490.972656 -35576.261719
v  -62636.882813 9490.971680 -34399.992188
v  -62830.035156 9490.971680 -34451.875000
v  -62636.882813 285.013672 -34399.992188
v  -61691.886719 9558.471680 -31557.550781
v  -61498.738281 9558.471680 -31505.667969
v  -60474.070313 9558.471680 -35320.449219
v  -61197.453125 9558.471680 -35514.753906
v  -61586.566406 9558.471680 -34066.101563
v  -62600.621094 9558.471680 -34338.480469
v  -63482.617188 9558.471680 -31054.871094
v  -62759.234375 9558.471680 -30860.568359
v  -62707.347656 9558.471680 -31053.722656
v  -62416.675781 9558.471680 -30975.646484
v  -62468.562500 9558.471680 -30782.492188
v  -61745.179688 9558.471680 -30588.189453
v  -61615.472656 9558.471680 -31071.072266
v  -61808.625000 9558.471680 -31122.953125
v  -61645.570313 10233.542969 -34154.753906
v  -61181.269531 10233.542969 -35883.328125
v  -62332.457031 10233.542969 -36192.542969
v  -62796.757813 10233.542969 -34463.968750
v  -61622.828125 9490.971680 -34127.613281
v  -61145.453125 9490.971680 -35904.851563
v  -62830.035156 9490.971680 -34451.875000
v  -61145.453125 285.013672 -35904.851563
v  -62352.660156 285.013672 -36229.113281
v  -62830.035156 285.013672 -34451.875000
v  -62636.882813 285.013672 -34399.992188
v  -61709.855469 285.013672 -30526.929688
v  -61554.210938 285.013672 -31106.390625
v  -61747.363281 285.013672 -31158.273438
v  -61656.566406 285.013672 -31496.292969
v  -61463.414063 285.013672 -31444.410156
v  -60412.812500 285.013672 -35355.769531
v  -61233.714844 285.013672 -35576.261719
v  -63544.816406 285.013672 -31019.806641
v  -62723.914063 285.013672 -30799.308594
v  -62672.027344 285.013672 -30992.462891
v  -62478.875000 285.013672 -30940.580078
v  -62530.761719 285.013672 -30747.427734
v  -62830.035156 285.013672 -34451.875000
# 81 vertices

vn 0.000000 1.000000 -0.000000
vn 0.256901 0.000000 -0.966438
vn -0.964905 0.000000 -0.262601
vn -0.965675 0.000000 -0.259754
vn 0.966084 0.000000 0.258230
vn 0.966838 0.000000 0.255391
vn -0.262601 0.000000 0.964905
vn 0.965675 0.000000 0.259754
vn 0.261829 0.000000 -0.965114
vn 0.262601 0.000000 -0.964905
vn -0.261829 0.000000 0.965114
vn -0.262214 0.000000 0.965010
vn 0.259754 0.000000 -0.965675
vn -0.256522 0.000000 0.966538
vn -0.965291 0.000000 -0.261178
vn 0.256144 0.000000 -0.966639
vn -0.256144 0.000000 0.966639
vn -0.256901 0.000000 0.966438
# 18 vertex normals

vt -1.470118 6.155472 0.000000
vt -1.470118 5.955467 0.000000
vt -1.420116 5.904495 0.000000
vt -1.420116 6.205467 0.000000
vt -1.670116 5.955467 0.000000
vt -1.620117 5.904495 0.000000
vt -1.670116 5.105469 0.000000
vt -1.620117 5.155472 0.000000
vt -1.070116 5.105469 0.000000
vt -1.120117 5.155472 0.000000
vt -1.070116 5.305466 0.000000
vt -1.120117 5.355469 0.000000
vt -0.720118 5.305466 0.000000
vt -0.670116 5.355469 0.000000
vt -0.720118 5.105469 0.000000
vt -0.670116 5.155472 0.000000
vt 3.329884 5.105469 0.000000
vt 3.279882 5.155472 0.000000
vt 3.329884 5.955467 0.000000
vt 3.279882 5.904495 0.000000
vt 1.829884 5.955467 0.000000
vt 1.779882 5.904495 0.000000
vt 1.829885 7.005470 0.000000
vt 1.779882 6.954491 0.000000
vt -1.670115 7.005470 0.000000
vt -1.620117 6.954491 0.000000
vt -1.670116 6.155472 0.000000
vt -1.620117 6.205467 0.000000
vt 3.670118 5.955467 0.000000
vt 3.640039 5.984474 0.000000
vt 1.850195 5.984474 0.000000
vt 3.670120 7.205467 0.000000
vt 3.640041 7.176468 0.000000
vt 1.829885 7.205467 0.000000
vt 1.850197 7.176468 0.000000
vt 0.562112 1.000000 0.000000
vt 0.488169 1.000000 0.000000
vt 0.488169 0.000000 0.000000
vt 0.562112 0.000000 0.000000
vt 0.447499 1.000000 0.000000
vt 0.331081 1.000000 0.000000
vt 0.331081 0.000000 0.000000
vt 0.447499 0.000000 0.000000
vt 0.668919 0.917852 0.000000
vt 0.647395 0.917852 0.000000
vt 0.647395 0.000000 0.000000
vt 0.668919 0.000000 0.000000
vt 0.449719 0.917852 0.000000
vt 0.437888 0.917852 0.000000
vt 0.437888 0.000000 0.000000
vt 0.449719 0.000000 0.000000
vt 0.369039 0.000000 0.000000
vt 0.369039 0.933000 0.000000
vt 0.331081 0.933000 0.000000
vt 0.437889 0.000000 0.000000
vt 0.449719 0.933000 0.000000
vt 0.437889 0.933000 0.000000
vt 0.391181 0.000000 0.000000
vt 0.391181 0.933000 0.000000
vt 0.550281 0.000000 0.000000
vt 0.562111 0.000000 0.000000
vt 0.562111 0.933000 0.000000
vt 0.550281 0.933000 0.000000
vt 0.647395 0.933000 0.000000
vt 0.488169 0.933000 0.000000
vt 0.668919 0.933000 0.000000
vt 0.447499 0.933000 0.000000
vt 0.500000 0.000000 0.000000
vt 0.500000 0.933000 0.000000
vt 0.343734 0.000000 0.000000
vt 0.343734 0.933000 0.000000
vt 0.511831 0.000000 0.000000
vt 0.511831 0.933000 0.000000
vt 0.656266 0.000000 0.000000
vt 0.656266 0.933000 0.000000
vt 6.205467 4.497090 0.000000
vt 5.904495 4.497090 0.000000
vt 5.904495 4.412651 0.000000
vt 6.205467 4.412651 0.000000
vt -1.420116 4.497090 0.000000
vt -1.620117 4.497090 0.000000
vt -1.620117 4.412651 0.000000
vt -1.420116 4.412651 0.000000
vt 5.155472 4.497090 0.000000
vt 5.155472 4.412651 0.000000
vt 2.620117 4.497090 0.000000
vt 2.120117 4.497090 0.000000
vt 2.120117 4.412651 0.000000
vt 2.620117 4.412651 0.000000
vt -4.155472 4.497090 0.000000
vt -4.355469 4.497090 0.000000
vt -4.355469 4.412651 0.000000
vt -4.155472 4.412651 0.000000
vt 1.670116 4.497090 0.000000
vt 1.670116 4.412651 0.000000
vt 5.355469 4.497090 0.000000
vt 5.355469 4.412651 0.000000
vt -2.279882 4.497090 0.000000
vt -2.279882 4.412651 0.000000
vt -4.904495 4.497090 0.000000
vt -4.904495 4.412651 0.000000
vt 3.279882 4.497090 0.000000
vt 1.779882 4.497101 0.000000
vt 1.779882 4.412651 0.000000
vt 3.279882 4.412651 0.000000
vt -4.904495 4.497101 0.000000
vt -5.954491 4.497090 0.000000
vt -5.954491 4.412651 0.000000
vt 1.779882 4.497090 0.000000
vt 6.954491 4.497090 0.000000
vt 6.954491 4.412651 0.000000
vt 2.420116 4.497090 0.000000
vt 2.420116 4.412651 0.000000
vt -0.850195 5.169090 0.000000
vt -2.640039 5.169090 0.000000
vt -2.640039 5.087721 0.000000
vt -0.850195 5.087721 0.000000
vt -4.984474 5.169090 0.000000
vt -6.176468 5.169090 0.000000
vt -6.176468 5.087721 0.000000
vt -4.984474 5.087721 0.000000
vt 3.640041 5.169090 0.000000
vt 1.850197 5.169090 0.000000
vt 1.850197 5.087721 0.000000
vt 3.640041 5.087721 0.000000
vt 7.176468 5.169090 0.000000
vt 5.984474 5.169090 0.000000
vt 5.984474 5.087721 0.000000
vt 7.176468 5.087721 0.000000
vt 3.670118 5.169090 0.000000
vt 1.829884 5.169090 0.000000
vt 1.829884 4.345151 0.000000
vt 3.670118 4.345151 0.000000
vt -4.955467 5.169090 0.000000
vt -6.205467 5.169090 0.000000
vt -6.205467 4.345151 0.000000
vt -4.955467 4.345151 0.000000
# 137 texture coords

o JZ_JX_09
g JZ_JX_09
usemtl Material__2097632332
s off
f -79/-137/-18 -78/-136/-18 -81/-135/-18 -80/-134/-18 
f -78/-136/-18 -76/-133/-18 -77/-132/-18 -81/-135/-18 
f -76/-133/-18 -74/-131/-18 -75/-130/-18 -77/-132/-18 
f -74/-131/-18 -72/-129/-18 -73/-128/-18 -75/-130/-18 
f -72/-129/-18 -70/-127/-18 -71/-126/-18 -73/-128/-18 
f -70/-127/-18 -68/-125/-18 -69/-124/-18 -71/-126/-18 
f -68/-125/-18 -66/-123/-18 -67/-122/-18 -69/-124/-18 
f -66/-123/-18 -64/-121/-18 -65/-120/-18 -67/-122/-18 
f -64/-121/-18 -62/-119/-18 -63/-118/-18 -65/-120/-18 
f -62/-119/-18 -60/-117/-18 -61/-116/-18 -63/-118/-18 
f -60/-117/-18 -58/-115/-18 -59/-114/-18 -61/-116/-18 
f -58/-115/-18 -56/-113/-18 -57/-112/-18 -59/-114/-18 
f -56/-113/-18 -54/-111/-18 -55/-110/-18 -57/-112/-18 
f -54/-111/-18 -79/-137/-18 -80/-134/-18 -55/-110/-18 
f -51/-117/-18 -50/-109/-18 -53/-108/-18 -52/-107/-18 
f -50/-109/-18 -48/-106/-18 -49/-105/-18 -53/-108/-18 
f -48/-106/-18 -46/-104/-18 -47/-103/-18 -49/-105/-18 
f -46/-104/-18 -51/-117/-18 -52/-107/-18 -47/-103/-18 
usemtl Material__2097636575
f -48/-102/-17 -50/-101/-17 -17/-100/-17 -16/-99/-17 
f -46/-98/-16 -48/-97/-15 -16/-96/-15 -15/-95/-16 
f -43/-94/-14 -42/-93/-13 -45/-92/-13 -44/-91/-14 
f -41/-90/-12 -40/-89/-12 -1/-88/-12 -14/-87/-12 
f -13/-96/-11 -12/-86/-11 -72/-85/-11 -74/-84/-11 
f -12/-83/-10 -11/-87/-9 -70/-82/-9 -72/-81/-10 
f -11/-86/-11 -10/-80/-11 -68/-79/-11 -70/-85/-11 
f -10/-78/-8 -9/-77/-7 -66/-76/-7 -68/-75/-8 
f -9/-80/-11 -8/-92/-11 -64/-74/-11 -66/-79/-11 
f -8/-83/-6 -7/-100/-10 -62/-73/-10 -64/-81/-6 
f -39/-95/-15 -6/-91/-15 -56/-72/-15 -58/-71/-15 
f -6/-87/-5 -5/-70/-5 -54/-69/-5 -56/-82/-5 
f -5/-96/-11 -4/-68/-11 -79/-67/-11 -54/-84/-11 
f -4/-70/-7 -3/-66/-7 -78/-65/-7 -79/-69/-7 
f -3/-64/-15 -2/-91/-15 -76/-72/-15 -78/-63/-15 
f -2/-66/-5 -13/-77/-5 -74/-76/-5 -76/-65/-5 
usemtl Material__2097632332
f -33/-114/-18 -32/-112/-18 -31/-110/-18 -30/-134/-18 
f -29/-135/-18 -28/-132/-18 -27/-130/-18 -25/-126/-18 
f -27/-130/-18 -26/-128/-18 -25/-126/-18 
f -38/-124/-18 -37/-122/-18 -36/-120/-18 -35/-118/-18 
f -25/-126/-18 -38/-124/-18 -35/-118/-18 -34/-116/-18 
f -29/-135/-18 -25/-126/-18 -34/-116/-18 -30/-134/-18 
f -33/-114/-18 -30/-134/-18 -34/-116/-18 
f -22/-105/-18 -21/-103/-18 -24/-107/-18 -23/-108/-18 
f -80/-62/-17 -81/-61/-17 -29/-60/-17 -30/-59/-17 
f -81/-58/-14 -77/-57/-14 -28/-56/-14 -29/-55/-14 
f -77/-61/-10 -75/-54/-9 -27/-53/-9 -28/-60/-10 
f -75/-52/-15 -73/-51/-15 -26/-50/-15 -27/-49/-15 
f -73/-48/-5 -71/-47/-5 -25/-46/-5 -26/-45/-5 
f -71/-51/-4 -69/-44/-15 -38/-43/-15 -25/-50/-4 
f -69/-42/-17 -67/-54/-3 -37/-53/-3 -38/-41/-17 
f -67/-44/-15 -65/-40/-15 -36/-39/-15 -37/-43/-15 
f -65/-48/-2 -63/-38/-1 -35/-37/-1 -36/-45/-2 
f -63/-36/-13 -61/-35/-14 -34/-34/-14 -35/-33/-13 
f -61/-32/-12 -59/-31/-12 -33/-30/-12 -34/-37/-12 
f -59/-29/-14 -57/-57/-14 -32/-56/-14 -33/-34/-14 
f -57/-28/-10 -55/-62/-10 -31/-59/-10 -32/-27/-10 
f -55/-52/-15 -80/-26/-15 -30/-25/-15 -31/-49/-15 
f -52/-24/-15 -53/-23/-15 -23/-22/-15 -24/-21/-15 
f -53/-20/-2 -49/-19/-1 -22/-18/-1 -23/-17/-2 
f -49/-16/-14 -47/-15/-14 -21/-14/-14 -22/-13/-14 
f -47/-12/-10 -52/-11/-10 -24/-10/-10 -21/-9/-10 
f -50/-8/-14 -51/-7/-13 -20/-6/-13 -19/-5/-14 
f -51/-4/-12 -46/-3/-12 -18/-2/-12 -20/-1/-12 
# 60 polygons - 2 triangles

