# 3ds Max Wavefront OBJ Exporter v0.97b - (c)2007 guruware
# 创建的文件:22.08.2023 09:07:22

mtllib 23.mtl

#
# object JZ_JX_04
#

v  -64597.046875 3447.834473 -21637.781250
v  -65867.968750 3447.834473 -22062.695313
v  -65867.968750 316.542847 -22062.695313
v  -64597.046875 316.542847 -21637.781250
v  -63696.289063 3447.834473 -24320.349609
v  -63696.289063 316.542847 -24320.349609
v  -64966.382813 3447.834473 -24742.658203
v  -64966.382813 316.542847 -24742.658203
v  -64966.308594 3447.834473 -24742.560547
v  -65867.875000 3447.834473 -22062.609375
v  -64596.898438 3447.834473 -21637.689453
v  -63696.140625 3447.834473 -24320.257813
# 12 vertices

vn -0.316228 0.000000 0.948683
vn -0.318062 0.000000 0.948070
vn 0.946847 0.000000 0.321685
vn 0.318062 0.000000 -0.948070
vn 0.337865 0.000000 -0.941195
vn -0.948683 0.000000 -0.316228
vn -0.944245 0.000000 -0.329243
vn 0.000000 1.000000 -0.000000
# 8 vertex normals

vt 0.584084 0.760941 0.000000
vt 0.416573 0.760941 0.000000
vt 0.416573 0.239059 0.000000
vt 0.584084 0.239059 0.000000
vt 0.677172 0.760941 0.000000
vt 0.323451 0.760941 0.000000
vt 0.323451 0.239059 0.000000
vt 0.677172 0.239059 0.000000
vt 0.584082 0.760941 0.000000
vt 0.416776 0.760941 0.000000
vt 0.416776 0.239059 0.000000
vt 0.584082 0.239059 0.000000
vt 0.323728 0.760941 0.000000
vt 0.323728 0.239059 0.000000
vt -1.502541 5.698318 0.000000
vt -1.603088 8.526971 0.000000
vt -2.942360 8.478890 0.000000
vt -2.841812 5.650241 0.000000
# 18 texture coords

o JZ_JX_04
g JZ_JX_04
usemtl Material__1125
s off
f -12/-18/-8 -11/-17/-7 -10/-16/-7 -9/-15/-8 
f -8/-14/-6 -12/-13/-6 -9/-12/-6 -7/-11/-6 
f -6/-10/-5 -8/-9/-4 -7/-8/-4 -5/-7/-5 
f -11/-14/-3 -6/-6/-2 -5/-5/-2 -10/-11/-3 
usemtl Material__2097632332
f -4/-4/-1 -3/-3/-1 -2/-2/-1 -1/-1/-1 
# 5 polygons

