# 3ds Max Wavefront OBJ Exporter v0.97b - (c)2007 guruware
# 创建的文件:22.08.2023 09:07:58

mtllib 25.mtl

#
# object JZ_JX_05
#

v  -63735.429688 2056.647461 -15911.316406
v  -63654.359375 2056.647461 -16266.906250
v  -65179.054688 2056.647461 -16614.953125
v  -65836.460938 2056.647461 -13735.009766
v  -64311.765625 2056.647461 -13386.962891
v  -64230.515625 2056.647461 -13742.517578
v  -63750.468750 2056.647461 -13632.934570
v  -63831.714844 2056.647461 -13277.380859
v  -62304.066406 2056.647461 -12928.662109
v  -61646.648438 2056.647461 -15808.605469
v  -63174.296875 2056.647461 -16157.324219
v  -63255.382813 2056.647461 -15801.733398
v  -63735.429688 11767.154297 -15911.316406
v  -63654.359375 11767.154297 -16266.906250
v  -65179.054688 11767.154297 -16614.953125
v  -65836.460938 11767.154297 -13735.009766
v  -64311.765625 11767.154297 -13386.962891
v  -64230.515625 11767.154297 -13742.517578
v  -63750.468750 11767.154297 -13632.934570
v  -63831.714844 11767.154297 -13277.380859
v  -62304.066406 11767.154297 -12928.662109
v  -61646.648438 11767.154297 -15808.605469
v  -63174.296875 11767.154297 -16157.324219
v  -63255.382813 11767.154297 -15801.733398
v  -63793.335938 11493.619141 -15878.515625
v  -63712.339844 11493.619141 -16234.119141
v  -65148.156250 11493.619141 -16561.876953
v  -65785.289063 11493.619141 -13770.825195
v  -64349.476563 11493.619141 -13443.054688
v  -64268.140625 11493.619141 -13798.583984
v  -63699.195313 11493.619141 -13668.701172
v  -63780.535156 11493.619141 -13313.183594
v  -62341.761719 11493.619141 -12984.741211
v  -61704.640625 11493.619141 -15775.805664
v  -63143.402344 11493.619141 -16104.248047
v  -63224.394531 11493.619141 -15748.632813
v  -63224.437500 11767.154297 -15748.461914
v  -63143.445313 11767.154297 -16104.077148
v  -61704.675781 11767.154297 -15775.634766
v  -62341.808594 11767.154297 -12984.533203
v  -63780.578125 11767.154297 -13313.012695
v  -63699.230469 11767.154297 -13668.530273
v  -64268.175781 11767.154297 -13798.413086
v  -64349.511719 11767.154297 -13442.882813
v  -65785.328125 11767.154297 -13770.654297
v  -65148.207031 11767.154297 -16561.669922
v  -63712.390625 11767.154297 -16233.911133
v  -63793.378906 11767.154297 -15878.344727
v  -63738.902344 11767.152344 -15912.109375
v  -63657.910156 11767.152344 -16267.724609
v  -65182.617188 11767.152344 -16615.771484
v  -65840.023438 11767.152344 -13735.828125
v  -64315.324219 11767.152344 -13387.768555
v  -64233.996094 11767.152344 -13743.286133
v  -63753.941406 11767.152344 -13633.715820
v  -63835.277344 11767.152344 -13278.185547
v  -62307.617188 11767.152344 -12929.455078
v  -61650.207031 11767.152344 -15809.412109
v  -63177.863281 11767.152344 -16158.142578
v  -63258.851563 11767.152344 -15802.527344
v  -65017.039063 825.738770 -17353.929688
v  -65842.648438 825.738770 -13737.158203
v  -64315.171875 825.738770 -13388.452148
v  -64511.425781 825.738770 -12528.710938
v  -60120.484375 825.738770 -11526.367188
v  -59098.609375 825.738770 -16002.905273
v  -65017.039063 2056.648438 -17353.929688
v  -65842.648438 2056.648438 -13737.158203
v  -64315.171875 2056.648438 -13388.452148
v  -64511.425781 2056.648438 -12528.710938
v  -60120.484375 2056.648438 -11526.367188
v  -59098.609375 2056.648438 -16002.905273
v  -59153.203125 1919.880371 -15968.603516
v  -60154.785156 1919.880371 -11580.957031
v  -64456.835938 1919.880371 -12563.012695
v  -64199.707031 1919.880371 -13689.428711
v  -63808.390625 1919.880371 -13600.841797
v  -63889.714844 1919.880371 -13244.568359
v  -62273.339844 1919.880371 -12875.585938
v  -61595.472656 1919.880371 -15845.128906
v  -63212.000000 1919.880371 -16213.427734
v  -63293.171875 1919.880371 -15857.861328
v  -63684.660156 1919.880371 -15946.496094
v  -63603.332031 1919.880371 -16302.758789
v  -65130.804688 1919.880371 -16650.707031
v  -64982.738281 1919.880371 -17299.339844
v  -59153.203125 2056.648438 -15968.603516
v  -60154.785156 2056.648438 -11580.957031
v  -64456.835938 2056.648438 -12563.012695
v  -64199.707031 2056.648438 -13689.428711
v  -63808.390625 2056.648438 -13600.841797
v  -63889.714844 2056.648438 -13244.568359
v  -62273.339844 2056.648438 -12875.585938
v  -61595.472656 2056.648438 -15845.128906
v  -63212.000000 2056.648438 -16213.427734
v  -63293.171875 2056.648438 -15857.861328
v  -63684.660156 2056.648438 -15946.496094
v  -63603.332031 2056.648438 -16302.758789
v  -65130.804688 2056.648438 -16650.707031
v  -64982.738281 2056.648438 -17299.339844
v  -65185.394531 2056.648438 -16616.406250
v  -63657.929688 2056.648438 -16268.457031
v  -63739.257813 2056.648438 -15912.195313
v  -63258.867188 2056.648438 -15803.271484
v  -63177.703125 2056.648438 -16158.837891
v  -61650.062500 2056.648438 -15810.839844
v  -62307.640625 2056.648438 -12930.175781
v  -63835.121094 2056.648438 -13278.869141
v  -63753.800781 2056.648438 -13635.144531
v  -64234.007813 2056.648438 -13744.018555
# 110 vertices

vn 0.976813 0.000000 0.214096
vn 0.973940 0.000000 0.226808
vn 0.226808 0.000000 -0.973940
vn -0.973940 0.000000 -0.226808
vn -0.226808 0.000000 0.973940
vn -0.220466 0.000000 0.975395
vn -0.976813 0.000000 -0.214096
vn 0.220466 0.000000 -0.975395
vn 0.000000 1.000000 -0.000000
vn 0.976503 0.000000 0.215504
vn 0.973593 0.000000 0.228291
vn -0.217629 -0.000824 0.976031
vn -0.220466 -0.000835 0.975394
vn -0.226808 -0.000834 0.973939
vn 0.220466 0.000835 -0.975394
vn 0.226808 0.000834 -0.973939
vn 0.223376 0.000846 -0.974732
vn -0.214096 -0.000836 0.976812
vn 0.223376 0.000000 -0.974732
vn -0.229793 0.000000 0.973240
# 20 vertex normals

vt 22.964165 0.096794 0.000000
vt 23.064167 0.096794 0.000000
vt 23.064167 0.810079 0.000000
vt 22.964165 0.810079 0.000000
vt -9.318253 0.096794 0.000000
vt -8.889444 0.096794 0.000000
vt -8.889444 0.810079 0.000000
vt -9.318253 0.810079 0.000000
vt -22.064167 0.096794 0.000000
vt -21.254208 0.096794 0.000000
vt -21.254208 0.810079 0.000000
vt -22.064167 0.810079 0.000000
vt 9.889444 0.096794 0.000000
vt 10.318253 0.096794 0.000000
vt 10.318253 0.810079 0.000000
vt 9.889444 0.810079 0.000000
vt 22.254204 0.096794 0.000000
vt 22.354206 0.096794 0.000000
vt 22.354206 0.810079 0.000000
vt 22.254204 0.810079 0.000000
vt 10.318275 0.096794 0.000000
vt 10.453285 0.096794 0.000000
vt 10.453285 0.810079 0.000000
vt 10.318275 0.810079 0.000000
vt -21.354206 0.096794 0.000000
vt -21.254204 0.096794 0.000000
vt -21.254204 0.810079 0.000000
vt -21.354206 0.810079 0.000000
vt 10.453262 0.096794 0.000000
vt 10.882902 0.096794 0.000000
vt 10.882902 0.810079 0.000000
vt 10.453262 0.810079 0.000000
vt -9.882902 0.096794 0.000000
vt -9.453262 0.096794 0.000000
vt -9.453262 0.810079 0.000000
vt -9.882902 0.810079 0.000000
vt -21.964165 0.096794 0.000000
vt -21.964165 0.810079 0.000000
vt -9.453287 0.096794 0.000000
vt -9.318277 0.096794 0.000000
vt -9.318277 0.810079 0.000000
vt -9.453287 0.810079 0.000000
vt -1.701538 2.540833 0.000000
vt -2.501556 2.541229 0.000000
vt -2.501556 -0.695892 0.000000
vt 3.778137 -0.695892 0.000000
vt 3.778137 2.541214 0.000000
vt 2.978149 2.540825 0.000000
vt 2.978149 3.820900 0.000000
vt -1.701538 3.820915 0.000000
vt 3.778137 7.051758 0.000000
vt -2.501526 7.051773 0.000000
vt -2.501556 3.821304 0.000000
vt 3.778137 3.821289 0.000000
vt 0.080307 0.819898 0.000000
vt 0.095974 0.819898 0.000000
vt 0.095974 0.831648 0.000000
vt 0.080307 0.831648 0.000000
vt 0.029033 0.876675 0.000000
vt 0.092427 0.876675 0.000000
vt 0.092427 0.888425 0.000000
vt 0.029033 0.888425 0.000000
vt 0.312215 0.592422 0.000000
vt 0.435196 0.592422 0.000000
vt 0.435196 0.604172 0.000000
vt 0.312215 0.604172 0.000000
vt 0.029033 0.913419 0.000000
vt 0.092427 0.913419 0.000000
vt 0.092427 0.925169 0.000000
vt 0.029033 0.925169 0.000000
vt 0.069203 0.836678 0.000000
vt 0.084870 0.836678 0.000000
vt 0.084870 0.848429 0.000000
vt 0.069203 0.848429 0.000000
vt 0.312215 0.680402 0.000000
vt 0.337284 0.680402 0.000000
vt 0.337284 0.692152 0.000000
vt 0.312215 0.692152 0.000000
vt 0.292311 0.143634 0.000000
vt 0.292311 0.127967 0.000000
vt 0.304061 0.127967 0.000000
vt 0.304061 0.143634 0.000000
vt 0.025483 0.861060 0.000000
vt 0.088749 0.861060 0.000000
vt 0.088749 0.872810 0.000000
vt 0.025483 0.872810 0.000000
vt 0.291389 0.692152 0.000000
vt 0.291389 0.569172 0.000000
vt 0.303139 0.569172 0.000000
vt 0.303139 0.692152 0.000000
vt 0.390315 0.560126 0.000000
vt 0.453580 0.560126 0.000000
vt 0.453580 0.571876 0.000000
vt 0.390315 0.571876 0.000000
vt 0.080307 0.693962 0.000000
vt 0.095974 0.693962 0.000000
vt 0.095974 0.705712 0.000000
vt 0.080310 0.705712 0.000000
vt 0.025329 0.817068 0.000000
vt 0.050398 0.817068 0.000000
vt 0.050398 0.828818 0.000000
vt 0.025329 0.828818 0.000000
vt 0.154188 0.958578 0.000000
vt 0.154188 0.835597 0.000000
vt 0.156146 0.960536 0.000000
vt 0.088964 0.960536 0.000000
vt 0.090921 0.958578 0.000000
vt 0.088960 0.944869 0.000000
vt 0.090919 0.942911 0.000000
vt 0.067808 0.944869 0.000000
vt 0.065850 0.942911 0.000000
vt 0.065853 0.958578 0.000000
vt 0.067812 0.960536 0.000000
vt 0.002458 0.958578 0.000000
vt 0.156146 0.833639 0.000000
vt 0.090922 0.835597 0.000000
vt 0.088964 0.833639 0.000000
vt 0.088960 0.849306 0.000000
vt 0.090919 0.851264 0.000000
vt 0.065850 0.851264 0.000000
vt 0.067808 0.849306 0.000000
vt 0.065853 0.835597 0.000000
vt 0.067812 0.833639 0.000000
vt 0.000500 0.833639 0.000000
vt 0.002458 0.835597 0.000000
vt 0.000500 0.960536 0.000000
vt 0.263780 0.000000 0.000000
vt 0.858603 0.000000 0.000000
vt 0.858603 1.000000 0.000000
vt 0.263780 1.000000 0.000000
vt 0.000000 0.000000 0.000000
vt 0.258089 0.000000 0.000000
vt 0.258089 1.000000 0.000000
vt 0.000000 1.000000 0.000000
vt 0.807943 0.000000 0.000000
vt 1.000000 0.000000 0.000000
vt 1.000000 1.000000 0.000000
vt 0.807943 1.000000 0.000000
vt 0.453790 0.000000 0.000000
vt 0.453790 1.000000 0.000000
vt 0.982881 0.614223 0.000000
vt 0.789551 0.614223 0.000000
vt 0.789551 0.608348 0.000000
vt 0.982881 0.608348 0.000000
vt 0.979109 0.666634 0.000000
vt 0.789551 0.666634 0.000000
vt 0.789551 0.660759 0.000000
vt 0.979109 0.660759 0.000000
vt 0.146995 0.811838 0.000000
vt 0.146995 0.762204 0.000000
vt 0.152870 0.762204 0.000000
vt 0.152870 0.811838 0.000000
vt 0.704851 0.209832 0.000000
vt 0.722084 0.209832 0.000000
vt 0.722084 0.215707 0.000000
vt 0.704851 0.215707 0.000000
vt 0.692382 0.317671 0.000000
vt 0.692382 0.301986 0.000000
vt 0.698258 0.301986 0.000000
vt 0.698258 0.317671 0.000000
vt 0.547060 0.705069 0.000000
vt 0.475838 0.705069 0.000000
vt 0.475838 0.699194 0.000000
vt 0.547060 0.699194 0.000000
vt 0.355759 0.330164 0.000000
vt 0.355759 0.258945 0.000000
vt 0.361634 0.258945 0.000000
vt 0.361634 0.330164 0.000000
vt 0.361201 0.356299 0.000000
vt 0.361201 0.340635 0.000000
vt 0.367077 0.340635 0.000000
vt 0.367077 0.356299 0.000000
vt 0.637937 0.192891 0.000000
vt 0.655182 0.192891 0.000000
vt 0.655182 0.198766 0.000000
vt 0.637937 0.198766 0.000000
vt 0.058492 0.702667 0.000000
vt 0.074187 0.702667 0.000000
vt 0.074187 0.708542 0.000000
vt 0.058492 0.708542 0.000000
vt 0.025483 0.854687 0.000000
vt 0.092780 0.854687 0.000000
vt 0.092780 0.860562 0.000000
vt 0.025483 0.860562 0.000000
vt 0.706368 0.400609 0.000000
vt 0.734947 0.400609 0.000000
vt 0.734947 0.406484 0.000000
vt 0.706368 0.406484 0.000000
vt 0.791855 0.360426 0.000000
vt 0.534993 0.360426 0.000000
vt 0.534993 0.354551 0.000000
vt 0.791855 0.354551 0.000000
vt 0.571939 0.757369 0.000000
vt 0.589184 0.757398 0.000000
vt 0.569981 0.759325 0.000000
vt 0.569979 0.743663 0.000000
vt 0.571938 0.741705 0.000000
vt 0.502677 0.743650 0.000000
vt 0.500719 0.741691 0.000000
vt 0.502677 0.870557 0.000000
vt 0.500719 0.872515 0.000000
vt 0.569982 0.870567 0.000000
vt 0.591142 0.759359 0.000000
vt 0.591143 0.743662 0.000000
vt 0.589185 0.741703 0.000000
vt 0.656481 0.741733 0.000000
vt 0.658440 0.743692 0.000000
vt 0.656481 0.713154 0.000000
vt 0.658440 0.711196 0.000000
vt 0.399619 0.713154 0.000000
vt 0.397660 0.711196 0.000000
vt 0.397660 0.908442 0.000000
vt 0.399619 0.906483 0.000000
vt 0.591135 0.908442 0.000000
vt 0.589177 0.906483 0.000000
vt 0.591135 0.854892 0.000000
vt 0.589177 0.856850 0.000000
vt 0.569985 0.854881 0.000000
vt 0.571944 0.856841 0.000000
vt 0.571941 0.872525 0.000000
vt -2.701538 2.741211 0.000000
vt -1.899994 2.741226 0.000000
vt -1.901550 3.621307 0.000000
vt -4.435913 3.621292 0.000000
vt 5.435944 7.058014 0.000000
vt 3.976563 7.058014 0.000000
vt 3.978149 3.621681 0.000000
vt 5.435944 -6.058006 0.000000
vt 3.176575 3.621681 0.000000
vt 3.178131 2.741211 0.000000
vt 3.978149 2.741211 0.000000
vt 3.979706 -0.895508 0.000000
vt -4.435913 -6.058006 0.000000
vt -2.701538 -0.895508 0.000000
# 234 texture coords

o JZ_JX_05
g JZ_JX_05
usemtl Material__2097641165
s off
f -110/-234/-20 -109/-233/-19 -97/-232/-19 -98/-231/-20 
f -109/-230/-18 -108/-229/-18 -96/-228/-18 -97/-227/-18 
f -108/-226/-17 -107/-225/-17 -95/-224/-17 -96/-223/-17 
f -107/-222/-16 -106/-221/-16 -94/-220/-16 -95/-219/-16 
f -106/-218/-20 -105/-217/-19 -93/-216/-19 -94/-215/-20 
f -105/-214/-15 -104/-213/-15 -92/-212/-15 -93/-211/-15 
f -104/-210/-14 -103/-209/-17 -91/-208/-17 -92/-207/-14 
f -103/-206/-15 -102/-205/-15 -90/-204/-15 -91/-203/-15 
f -102/-218/-19 -101/-233/-19 -89/-232/-19 -90/-215/-19 
f -101/-202/-13 -100/-201/-13 -88/-200/-13 -89/-199/-13 
f -100/-226/-17 -99/-198/-17 -87/-197/-17 -88/-223/-17 
f -99/-196/-13 -110/-195/-13 -98/-194/-13 -87/-193/-13 
usemtl Material__26
f -80/-192/-12 -79/-191/-12 -78/-190/-12 -77/-189/-12 
f -77/-189/-12 -76/-188/-12 -75/-187/-12 -80/-192/-12 
f -80/-192/-12 -75/-187/-12 -86/-186/-12 -81/-185/-12 
f -84/-184/-12 -83/-183/-12 -82/-182/-12 -81/-185/-12 
f -85/-181/-12 -84/-184/-12 -81/-185/-12 -86/-186/-12 
f -75/-180/-11 -76/-179/-10 -73/-178/-19 -74/-177/-20 
f -76/-176/-9 -77/-175/-8 -72/-174/-7 -73/-173/-9 
f -77/-172/-17 -78/-171/-17 -71/-170/-17 -72/-169/-17 
f -78/-168/-6 -79/-167/-6 -70/-166/-5 -71/-165/-4 
f -79/-164/-19 -80/-163/-20 -69/-162/-11 -70/-161/-19 
f -80/-160/-5 -81/-159/-5 -68/-158/-5 -69/-157/-6 
f -81/-156/-14 -82/-155/-17 -67/-154/-17 -68/-153/-14 
f -82/-152/-5 -83/-151/-5 -66/-150/-5 -67/-149/-6 
f -83/-148/-19 -84/-147/-19 -65/-146/-19 -66/-145/-19 
f -84/-144/-7 -85/-143/-7 -64/-142/-7 -65/-141/-7 
f -85/-140/-14 -86/-139/-14 -63/-138/-14 -64/-137/-14 
f -86/-136/-7 -75/-135/-8 -74/-134/-3 -63/-133/-8 
f -66/-132/-12 -65/-131/-12 -59/-130/-12 -58/-129/-12 
f -67/-128/-12 -66/-132/-12 -58/-129/-12 -57/-127/-12 
f -68/-126/-12 -67/-128/-12 -57/-127/-12 -56/-125/-12 
f -69/-124/-12 -68/-126/-12 -56/-125/-12 -70/-123/-12 
f -70/-123/-12 -56/-125/-12 -55/-122/-12 -71/-121/-12 
f -60/-120/-12 -59/-130/-12 -65/-131/-12 -64/-119/-12 
f -61/-118/-12 -60/-120/-12 -64/-119/-12 -62/-117/-12 
f -62/-117/-12 -64/-119/-12 -63/-116/-12 -74/-115/-12 
f -51/-114/-12 -62/-117/-12 -74/-115/-12 -73/-113/-12 
f -52/-112/-12 -51/-114/-12 -73/-113/-12 -53/-111/-12 
f -53/-111/-12 -73/-113/-12 -72/-110/-12 -54/-109/-12 
f -54/-109/-12 -72/-110/-12 -71/-121/-12 -55/-122/-12 
usemtl Material__2097638557
f -50/-108/-14 -49/-107/-14 -43/-106/-14 -44/-105/-14 
f -49/-104/-15 -48/-103/-15 -42/-102/-15 -43/-101/-15 
f -48/-100/-14 -47/-99/-14 -41/-98/-14 -42/-97/-14 
f -47/-96/-16 -46/-99/-16 -40/-98/-16 -41/-95/-16 
f -46/-108/-11 -45/-99/-11 -39/-98/-11 -40/-105/-11 
f -45/-108/-13 -50/-99/-18 -44/-98/-18 -39/-105/-13 
usemtl B1_12_GHJZ_09_tg
f -38/-94/-17 -37/-93/-17 -23/-92/-17 -24/-91/-17 
f -37/-90/-2 -36/-89/-2 -22/-88/-2 -23/-87/-2 
f -36/-86/-19 -35/-85/-10 -21/-84/-10 -22/-83/-19 
f -35/-82/-1 -34/-81/-15 -20/-80/-15 -21/-79/-1 
f -34/-78/-17 -33/-77/-14 -19/-76/-14 -20/-75/-17 
f -33/-74/-15 -32/-73/-16 -18/-72/-16 -19/-71/-15 
f -31/-70/-13 -30/-69/-13 -16/-68/-13 -17/-67/-13 
f -30/-66/-14 -29/-65/-14 -15/-64/-14 -16/-63/-14 
f -29/-62/-13 -28/-61/-2 -14/-60/-2 -15/-59/-13 
f -28/-58/-10 -27/-57/-10 -13/-56/-10 -14/-55/-10 
f -27/-54/-13 -26/-53/-2 -12/-52/-2 -13/-51/-13 
f -26/-50/-10 -25/-49/-19 -11/-48/-19 -12/-47/-10 
f -25/-46/-15 -38/-45/-15 -24/-44/-15 -11/-43/-15 
f -15/-42/-12 -14/-41/-12 -7/-40/-12 -6/-39/-12 
f -16/-38/-12 -15/-42/-12 -6/-39/-12 -5/-37/-12 
f -17/-36/-12 -16/-38/-12 -5/-37/-12 -4/-35/-12 
f -18/-34/-12 -17/-36/-12 -4/-35/-12 -3/-33/-12 
f -8/-32/-12 -7/-40/-12 -14/-41/-12 -9/-31/-12 
f -9/-31/-12 -14/-41/-12 -13/-30/-12 -12/-29/-12 
f -10/-28/-12 -9/-31/-12 -12/-29/-12 -11/-27/-12 
f -44/-26/-12 -10/-28/-12 -11/-27/-12 -24/-25/-12 
f -39/-24/-12 -44/-26/-12 -24/-25/-12 -40/-23/-12 
f -40/-23/-12 -24/-25/-12 -23/-22/-12 -41/-21/-12 
f -41/-21/-12 -23/-22/-12 -22/-20/-12 -1/-19/-12 
f -1/-19/-12 -22/-20/-12 -21/-18/-12 -2/-17/-12 
f -2/-17/-12 -21/-18/-12 -20/-16/-12 -3/-33/-12 
f -3/-33/-12 -20/-16/-12 -19/-15/-12 -18/-34/-12 
usemtl Material__26
f -33/-14/-12 -34/-13/-12 -35/-12/-12 -36/-11/-12 
f -25/-10/-12 -26/-9/-12 -27/-8/-12 -38/-7/-12 
f -27/-8/-12 -28/-6/-12 -29/-5/-12 -30/-4/-12 
f -38/-7/-12 -27/-8/-12 -30/-4/-12 -31/-3/-12 
f -37/-2/-12 -38/-7/-12 -31/-3/-12 -32/-1/-12 
f -36/-11/-12 -37/-2/-12 -32/-1/-12 -33/-14/-12 
# 80 polygons

