# 3ds Max Wavefront OBJ Exporter v0.97b - (c)2007 guruware
# 创建的文件:22.08.2023 09:08:19

mtllib 26.mtl

#
# object JZ_JX_07
#

v  -67736.625000 3113.507813 -16651.554688
v  -67736.039063 2876.379883 -16651.419922
v  -68190.671875 2876.379883 -14660.205078
v  -68191.257813 3113.355957 -14660.340820
v  -68191.257813 7065.188965 -14660.340820
v  -67736.625000 7065.188965 -16651.554688
v  -67296.914063 3109.899658 -16624.601563
v  -67439.664063 3109.899902 -16559.273438
v  -67439.070313 7404.646484 -16559.138672
v  -67296.914063 7404.647461 -16624.601563
v  -66100.835938 7404.646484 -16351.518555
v  -65999.992188 7404.645508 -16230.568359
v  -66000.585938 3109.899902 -16230.705078
v  -66100.835938 3109.899170 -16351.518555
v  -66219.476563 7404.646484 -16457.363281
v  -66219.476563 3109.899170 -16457.363281
v  -66354.554688 7404.646484 -16545.841797
v  -66354.554688 3109.899658 -16545.839844
v  -66502.187500 7404.647461 -16614.798828
v  -66502.187500 3109.899902 -16614.798828
v  -66659.054688 7404.646484 -16662.503906
v  -66659.054688 3109.899658 -16662.503906
v  -66820.468750 7404.646484 -16687.468750
v  -66820.468750 3109.899658 -16687.468750
v  -66983.414063 7404.647949 -16689.421875
v  -66983.414063 3109.899170 -16689.417969
v  -67143.500000 7404.647461 -16668.335938
v  -67143.500000 3109.899902 -16668.333984
v  -66142.289063 2876.380371 -14192.521484
v  -65687.656250 2876.379883 -16183.738281
v  -65687.656250 3113.355957 -16183.738281
v  -66142.882813 3113.355957 -14192.659180
v  -65688.250000 7065.188965 -16183.875000
v  -66142.882813 7065.188965 -14192.659180
v  -66025.500000 3114.025635 -16260.873047
v  -66024.914063 7065.250000 -16260.739258
v  -67399.382813 7065.125000 -16574.556641
v  -67399.382813 3113.293457 -16574.556641
v  -67415.039063 2796.275879 -17885.273438
v  -68130.015625 2796.275879 -14753.791992
v  -66157.507813 2796.276367 -14303.433594
v  -65442.531250 2796.275879 -17434.916016
v  -66173.046875 6985.084961 -14235.357422
v  -65733.960938 6985.084961 -16158.498047
v  -67706.468750 6985.085938 -16608.857422
v  -68145.554688 6985.084961 -14685.716797
v  -66666.851563 7324.542969 -16628.333984
v  -66822.851563 7324.541992 -16652.480469
v  -66979.554688 7324.542969 -16654.404297
v  -67133.851563 7324.542969 -16634.099609
v  -67281.289063 7324.541992 -16591.941406
v  -67293.812500 7324.542969 -16586.265625
v  -66120.859375 7324.542969 -16318.458984
v  -66129.671875 7324.542969 -16329.005859
v  -66244.210938 7324.542969 -16430.976563
v  -66374.406250 7324.542969 -16516.238281
v  -66516.421875 7324.542969 -16582.517578
v  -67480.265625 7592.545410 -16550.775391
v  -67779.921875 7592.545410 -15238.322266
v  -66262.609375 7592.544922 -14891.892578
v  -65962.953125 7592.545410 -16204.343750
v  -67779.921875 7672.648438 -15238.322266
v  -66262.609375 7672.649414 -14891.892578
v  -65962.953125 7672.649902 -16204.343750
v  -67480.265625 7672.649902 -16550.775391
v  -66120.859375 7404.647949 -16318.458984
v  -66129.671875 7404.647949 -16329.005859
v  -67281.289063 7404.648926 -16591.941406
v  -67293.812500 7404.647949 -16586.265625
v  -67133.851563 7404.647949 -16634.099609
v  -66979.554688 7404.647949 -16654.404297
v  -66822.851563 7404.647461 -16652.480469
v  -66666.851563 7404.647949 -16628.333984
v  -66516.421875 7404.647949 -16582.517578
v  -66374.406250 7404.647949 -16516.238281
v  -66244.210938 7404.647949 -16430.976563
v  -65733.960938 7065.188965 -16158.498047
v  -67706.468750 7065.188965 -16608.857422
v  -68145.554688 7065.188965 -14685.716797
v  -66173.046875 7065.188965 -14235.357422
v  -66157.507813 2876.380859 -14303.433594
v  -65442.531250 2876.380859 -17434.916016
v  -67415.039063 2876.380859 -17885.273438
v  -68130.015625 2876.380859 -14753.794922
v  -66232.453125 7672.648438 -14849.193359
v  -67825.625000 7672.649902 -15212.945313
v  -67510.429688 7672.649902 -16593.474609
v  -65917.250000 7672.649902 -16229.722656
v  -66025.500000 7404.647949 -16260.873047
v  -67404.125000 7404.648926 -16575.638672
v  -66127.343750 2876.380859 -14260.733398
v  -68175.718750 2876.380859 -14728.413086
v  -67445.195313 2876.380371 -17927.976563
v  -65396.824219 2876.380371 -17460.294922
v  -68175.718750 3113.355957 -14728.413086
v  -66142.289063 2876.380371 -14192.521484
v  -66142.882813 3113.355957 -14192.659180
v  -68191.257813 3113.355957 -14660.340820
v  -66142.289063 2876.380371 -14192.521484
v  -65687.656250 2796.274902 -16183.738281
v  -67736.039063 2796.274902 -16651.419922
v  -65396.226563 272.976807 -17460.158203
v  -67444.609375 272.976807 -17927.841797
v  -67509.835938 6985.083008 -16593.339844
v  -67825.031250 6985.083008 -15212.809570
v  -67825.031250 7265.450684 -15212.809570
v  -67509.835938 7265.448242 -16593.339844
v  -66231.851563 6985.083008 -14849.058594
v  -65916.656250 6985.083008 -16229.587891
v  -67509.835938 6985.083008 -16593.339844
v  -66142.289063 272.977051 -14192.521484
v  -68190.671875 272.977051 -14660.205078
# 112 vertices

vn -0.975072 -0.002554 -0.221873
vn -0.975075 0.000000 -0.221873
vn -0.415345 0.000000 -0.909664
vn -0.416453 0.000000 -0.909157
vn 0.763386 0.000000 -0.645942
vn 0.765820 0.000000 -0.643055
vn 0.663270 0.000000 -0.748380
vn 0.545194 0.000000 -0.838310
vn 0.433112 0.000000 -0.901340
vn 0.428339 0.000000 -0.903618
vn 0.292441 0.000000 -0.956283
vn 0.152057 0.000000 -0.988372
vn 0.005865 0.000000 -0.999983
vn -0.128714 0.000000 -0.991682
vn -0.275495 0.000000 -0.961302
vn 0.974782 0.002569 0.223143
vn 0.974786 0.000000 0.223144
vn 0.974143 0.000000 0.225931
vn 0.974786 0.000367 0.223144
vn 0.222507 0.000000 -0.974931
vn 0.223144 0.000000 -0.974786
vn 0.221873 0.000000 -0.975075
vn 0.000000 1.000000 -0.000000
vn 0.224646 0.000000 -0.974440
vn -0.221873 0.000000 0.975075
vn -0.765820 0.000000 0.643055
vn -0.769653 0.000000 0.638462
vn 0.411587 0.000000 0.911371
vn 0.410487 0.000000 0.911867
vn 0.268547 0.000000 0.963267
vn 0.128714 0.000000 0.991682
vn -0.011729 0.000000 0.999931
vn -0.146337 0.000000 0.989235
vn -0.291626 0.000000 0.956532
vn -0.293261 0.000000 0.956032
vn -0.422404 0.000000 0.906408
vn -0.546537 0.000000 0.837435
vn -0.661815 0.000000 0.749667
vn -0.228061 0.000000 0.973647
vn 0.975075 0.000000 0.221873
vn -0.975360 0.000000 -0.220617
vn -0.222507 0.000000 0.974931
vn -0.223144 0.000000 0.974786
vn 0.000000 -1.000000 -0.000000
vn -0.228712 0.000000 0.973494
vn -0.975074 -0.001460 -0.221873
vn 0.974784 0.001468 0.223143
vn 0.975075 0.000730 0.221873
vn 0.974785 0.000734 0.223144
vn -0.225287 0.000000 0.974293
vn -0.975075 -0.000365 -0.221873
# 51 vertex normals

vt 0.148229 0.448444 0.000000
vt 0.148229 0.396565 0.000000
vt 2.108092 0.396566 0.000000
vt 2.108092 0.448411 0.000000
vt 2.108092 1.312994 0.000000
vt 0.148229 1.312994 0.000000
vt 0.696304 -0.186847 0.000000
vt 0.736167 -0.186846 0.000000
vt 0.735973 1.186846 0.000000
vt 0.696304 1.186846 0.000000
vt 0.303890 1.186846 0.000000
vt 0.263832 1.186846 0.000000
vt 0.264028 -0.186846 0.000000
vt 0.303890 -0.186847 0.000000
vt 0.348421 1.186846 0.000000
vt 0.348421 -0.186847 0.000000
vt 0.396841 1.186846 0.000000
vt 0.396841 -0.186847 0.000000
vt 0.447788 1.186846 0.000000
vt 0.447788 -0.186846 0.000000
vt 0.500097 1.186846 0.000000
vt 0.500097 -0.186847 0.000000
vt 0.552211 1.186846 0.000000
vt 0.552211 -0.186847 0.000000
vt 0.603159 1.186847 0.000000
vt 0.603159 -0.186847 0.000000
vt 0.651578 1.186846 0.000000
vt 0.651578 -0.186846 0.000000
vt -1.108092 0.396566 0.000000
vt 0.851771 0.396566 0.000000
vt 0.851771 0.448411 0.000000
vt -1.108092 0.448411 0.000000
vt 0.851771 1.312994 0.000000
vt -1.108092 1.312994 0.000000
vt -0.507767 1.312994 0.000000
vt -0.508354 0.448411 0.000000
vt -0.175831 0.448558 0.000000
vt -0.176414 1.313008 0.000000
vt 1.176418 1.312980 0.000000
vt 1.176418 0.448398 0.000000
vt 1.508354 0.448444 0.000000
vt 1.508354 1.312994 0.000000
vt -18.914520 31.321808 0.000000
vt -18.914551 -30.321808 0.000000
vt 19.914490 -30.321808 0.000000
vt 19.914520 31.321808 0.000000
vt 1.470432 -1.225034 0.000000
vt 1.470432 0.932827 0.000000
vt -0.471020 0.932827 0.000000
vt -0.471020 -1.225034 0.000000
vt 0.494748 1.617083 0.000000
vt 0.192563 1.595619 0.000000
vt -0.101455 1.532278 0.000000
vt -0.381473 1.428370 0.000000
vt -0.639322 1.286512 0.000000
vt -0.660324 1.270546 0.000000
vt 1.648654 1.270546 0.000000
vt 1.627652 1.286510 0.000000
vt 1.369803 1.428371 0.000000
vt 1.089786 1.532280 0.000000
vt 0.795768 1.595619 0.000000
vt -0.994009 1.124498 0.000000
vt -0.994009 -1.459078 0.000000
vt 1.992837 -1.459080 0.000000
vt 1.992838 1.124496 0.000000
vt 1.994009 7.600448 0.000000
vt -0.992837 7.600449 0.000000
vt -0.992837 7.446718 0.000000
vt 1.994009 7.446719 0.000000
vt 2.459080 7.600449 0.000000
vt -0.124496 7.600451 0.000000
vt -0.124496 7.446719 0.000000
vt 2.459080 7.446718 0.000000
vt 1.992838 7.600451 0.000000
vt -0.994009 7.600451 0.000000
vt -0.994009 7.446719 0.000000
vt 1.992838 7.446719 0.000000
vt 1.124498 7.600451 0.000000
vt -1.459078 7.600448 0.000000
vt -1.459078 7.446719 0.000000
vt 1.124498 7.446719 0.000000
vt 1.627652 6.932388 0.000000
vt 1.648654 6.932388 0.000000
vt 1.648654 7.086121 0.000000
vt 1.627652 7.086121 0.000000
vt -0.639322 7.086123 0.000000
vt -0.660324 7.086121 0.000000
vt -0.660324 6.932388 0.000000
vt -0.639322 6.932387 0.000000
vt -0.381473 7.086121 0.000000
vt -0.381473 6.932388 0.000000
vt -0.101455 7.086121 0.000000
vt -0.101455 6.932388 0.000000
vt 0.192563 7.086120 0.000000
vt 0.192563 6.932387 0.000000
vt 0.494748 7.086121 0.000000
vt 0.494748 6.932388 0.000000
vt 0.795768 7.086121 0.000000
vt 0.795768 6.932388 0.000000
vt 1.089786 7.086121 0.000000
vt 1.089786 6.932388 0.000000
vt 1.369803 7.086121 0.000000
vt 1.369803 6.932388 0.000000
vt 1.660324 7.086121 0.000000
vt -0.648654 7.086121 0.000000
vt -0.648654 6.932388 0.000000
vt 1.660324 6.932388 0.000000
vt 1.470432 1.312994 0.000000
vt -0.471020 1.312994 0.000000
vt -0.471020 1.295469 0.000000
vt 1.470432 1.295469 0.000000
vt 0.818270 1.312994 0.000000
vt -1.074592 1.312994 0.000000
vt -1.074592 1.295469 0.000000
vt 0.818270 1.295469 0.000000
vt 1.471020 1.312994 0.000000
vt -0.470432 1.312994 0.000000
vt -0.470432 1.295469 0.000000
vt 1.471020 1.295469 0.000000
vt 2.074592 1.312994 0.000000
vt 0.181730 1.312994 0.000000
vt 0.181730 1.295469 0.000000
vt 2.074592 1.295469 0.000000
vt 31.321808 1.268661 0.000000
vt -30.321808 1.268658 0.000000
vt -30.321808 -0.268658 0.000000
vt 31.321808 -0.268650 0.000000
vt 19.914520 1.268658 0.000000
vt -18.914520 1.268658 0.000000
vt -18.914520 -0.268661 0.000000
vt 19.914520 -0.268658 0.000000
vt 31.321808 1.268658 0.000000
vt -30.321777 1.268661 0.000000
vt 31.321808 -0.268661 0.000000
vt -1.068680 -1.526081 0.000000
vt 2.067514 -1.526083 0.000000
vt -1.068680 1.191502 0.000000
vt 2.067514 1.191502 0.000000
vt 1.671988 1.340950 0.000000
vt 1.404807 1.488308 0.000000
vt 1.851664 1.203541 0.000000
vt -0.862167 1.203545 0.000000
vt -0.660324 1.270548 0.000000
vt -0.682492 1.340954 0.000000
vt -0.639322 1.286514 0.000000
vt -0.414138 1.488310 0.000000
vt -0.381473 1.428371 0.000000
vt -0.123623 1.596142 0.000000
vt 0.182065 1.662098 0.000000
vt 0.494748 1.684345 0.000000
vt 0.494748 1.617079 0.000000
vt 0.808603 1.662098 0.000000
vt 1.114285 1.596142 0.000000
vt 1.507767 0.971019 0.000000
vt -0.508354 0.971019 0.000000
vt 1.507767 -1.263225 0.000000
vt -0.508354 -1.263225 0.000000
vt -19.661255 -30.991821 0.000000
vt 20.661194 -30.991821 0.000000
vt -18.914551 -30.321777 0.000000
vt -19.661224 31.991852 0.000000
vt 20.661224 31.991852 0.000000
vt 1.508354 -1.186841 0.000000
vt -0.507767 -1.263225 0.000000
vt 1.508354 -1.263225 0.000000
vt -0.671988 1.340950 0.000000
vt -0.911167 1.157738 0.000000
vt 1.921670 1.157740 0.000000
vt 1.682492 1.340952 0.000000
vt 1.414138 1.488308 0.000000
vt 1.123623 1.596142 0.000000
vt 0.817935 1.662098 0.000000
vt 0.505252 1.684345 0.000000
vt 0.191397 1.662098 0.000000
vt -0.114285 1.596142 0.000000
vt -0.404807 1.488308 0.000000
vt -0.809805 -0.262993 0.000000
vt -0.809952 -0.198186 0.000000
vt -1.313982 -0.198186 0.000000
vt -0.507772 0.396566 0.000000
vt 1.508354 0.396566 0.000000
vt -0.508354 1.312994 0.000000
vt 1.507767 0.448411 0.000000
vt 1.507767 1.312994 0.000000
vt -0.508354 0.379040 0.000000
vt 1.507772 0.379040 0.000000
vt 1.507772 0.396565 0.000000
vt -0.508354 0.396566 0.000000
vt -0.508354 -0.173008 0.000000
vt 1.507772 -0.173008 0.000000
vt -0.507767 0.396566 0.000000
vt -0.191502 6.280922 0.000000
vt 2.526081 6.280922 0.000000
vt 2.526081 6.818984 0.000000
vt -0.191502 6.818979 0.000000
vt 2.526081 7.600451 0.000000
vt -0.191502 7.600451 0.000000
vt 1.191502 7.600451 0.000000
vt -1.526083 7.600448 0.000000
vt -1.526083 6.280922 0.000000
vt 1.191500 6.280922 0.000000
vt 2.067514 7.600448 0.000000
vt -1.068680 7.600451 0.000000
vt -1.067514 6.818984 0.000000
vt -1.067514 6.280922 0.000000
vt 2.068680 6.280922 0.000000
vt 2.068680 7.600451 0.000000
vt -1.067514 7.600451 0.000000
vt -1.068680 6.280922 0.000000
vt 2.067514 6.280922 0.000000
vt -1.108092 -0.173008 0.000000
vt 2.108094 -0.173008 0.000000
vt 2.108094 0.396566 0.000000
vt -1.108094 -0.173008 0.000000
vt 2.108092 -0.173008 0.000000
vt -1.108094 0.396566 0.000000
vt -0.507772 -0.173008 0.000000
vt 1.508354 -0.173008 0.000000
# 218 texture coords

o JZ_JX_07
g JZ_JX_07
usemtl Material__2097641165
s off
f -112/-218/-51 -111/-217/-51 -110/-216/-51 -109/-215/-51 
f -108/-214/-50 -107/-213/-50 -112/-218/-50 -109/-215/-50 
usemtl Material__2097640153
f -106/-212/-49 -105/-211/-49 -104/-210/-48 -103/-209/-49 
f -102/-208/-47 -101/-207/-47 -100/-206/-46 -99/-205/-45 
f -98/-204/-44 -102/-208/-47 -99/-205/-45 -97/-203/-44 
f -96/-202/-43 -98/-204/-44 -97/-203/-44 -95/-201/-42 
f -94/-200/-41 -96/-202/-43 -95/-201/-42 -93/-199/-41 
f -92/-198/-40 -94/-200/-41 -93/-199/-41 -91/-197/-40 
f -90/-196/-39 -92/-198/-40 -91/-197/-40 -89/-195/-39 
f -88/-194/-38 -90/-196/-39 -89/-195/-39 -87/-193/-38 
f -86/-192/-37 -88/-194/-38 -87/-193/-38 -85/-191/-37 
f -103/-209/-49 -86/-192/-37 -85/-191/-37 -106/-212/-49 
usemtl Material__2097641165
f -84/-190/-36 -83/-189/-35 -82/-188/-36 -81/-187/-36 
f -80/-186/-34 -79/-185/-35 -81/-187/-33 -82/-188/-33 
f -80/-184/-32 -82/-183/-31 -78/-182/-32 -77/-181/-32 
f -76/-180/-32 -75/-179/-32 -112/-178/-30 -107/-177/-30 
usemtl Material__26
f -74/-176/-29 -73/-175/-29 -72/-174/-29 -71/-173/-29 
f -70/-172/-29 -69/-171/-29 -68/-170/-29 -67/-169/-29 
usemtl Material__2097632332
f -66/-168/-29 -65/-167/-29 -64/-166/-29 -63/-165/-29 
f -66/-168/-29 -63/-165/-29 -62/-164/-29 -61/-163/-29 
f -66/-168/-29 -61/-163/-29 -60/-162/-29 -59/-161/-29 
f -66/-168/-29 -59/-161/-29 -58/-160/-29 -57/-159/-29 
f -66/-168/-29 -57/-159/-29 -56/-158/-29 
f -55/-157/-29 -54/-156/-29 -53/-155/-29 -52/-154/-29 
f -51/-153/-28 -50/-152/-30 -53/-151/-30 -54/-150/-28 
f -50/-149/-50 -49/-148/-50 -52/-147/-50 -53/-146/-50 
f -49/-145/-27 -48/-144/-27 -55/-143/-27 -52/-142/-27 
f -48/-141/-34 -51/-140/-35 -54/-139/-35 -55/-138/-34 
f -59/-137/-26 -60/-136/-25 -47/-135/-25 -46/-134/-26 
f -45/-133/-24 -44/-132/-23 -61/-131/-23 -62/-130/-22 
f -43/-129/-21 -45/-133/-24 -62/-130/-22 -63/-128/-21 
f -42/-127/-20 -43/-129/-21 -63/-128/-21 -64/-126/-20 
f -41/-125/-19 -42/-127/-20 -64/-126/-20 -65/-124/-19 
f -40/-123/-18 -41/-125/-19 -65/-124/-19 -66/-122/-17 
f -39/-121/-16 -40/-123/-18 -66/-122/-17 -56/-120/-16 
f -38/-119/-15 -39/-121/-16 -56/-120/-16 -57/-118/-15 
f -37/-117/-14 -38/-119/-15 -57/-118/-15 -58/-116/-14 
f -46/-134/-26 -37/-117/-14 -58/-116/-14 -59/-137/-26 
f -44/-115/-30 -47/-114/-30 -60/-113/-30 -61/-112/-30 
usemtl Material__2097641165
f -36/-111/-13 -35/-110/-27 -68/-109/-27 -69/-108/-13 
f -35/-107/-12 -34/-106/-12 -67/-105/-12 -68/-104/-12 
f -34/-103/-30 -33/-102/-32 -70/-101/-32 -67/-100/-30 
f -33/-99/-50 -36/-98/-11 -69/-97/-11 -70/-96/-50 
usemtl Material__26
f -32/-95/-50 -31/-94/-50 -71/-93/-50 -72/-92/-50 
f -31/-91/-10 -30/-90/-9 -74/-89/-9 -71/-88/-10 
f -30/-87/-12 -29/-86/-12 -73/-93/-12 -74/-85/-12 
usemtl Material__2097632332
f -27/-84/-29 -28/-83/-29 -50/-155/-29 -51/-156/-29 
f -26/-82/-29 -27/-84/-29 -51/-156/-29 -48/-157/-29 
f -25/-81/-29 -26/-82/-29 -48/-157/-29 -49/-154/-29 
f -49/-154/-29 -50/-155/-29 -28/-83/-29 -25/-81/-29 
f -102/-80/-29 -98/-79/-29 -37/-160/-29 -46/-161/-29 
f -24/-78/-29 -102/-80/-29 -46/-161/-29 -47/-162/-29 
f -23/-77/-29 -24/-78/-29 -47/-162/-29 -44/-76/-29 
f -103/-75/-29 -23/-77/-29 -44/-76/-29 -45/-74/-29 
f -86/-73/-29 -103/-75/-29 -45/-74/-29 -43/-72/-29 
f -88/-71/-29 -86/-73/-29 -43/-72/-29 -42/-166/-29 
f -90/-70/-29 -88/-71/-29 -42/-166/-29 -41/-167/-29 
f -92/-69/-29 -90/-70/-29 -41/-167/-29 -40/-68/-29 
f -94/-67/-29 -92/-69/-29 -40/-68/-29 -39/-158/-29 
f -96/-66/-29 -94/-67/-29 -39/-158/-29 -38/-159/-29 
f -38/-159/-29 -37/-160/-29 -98/-79/-29 -96/-66/-29 
usemtl Material__2097641165
f -80/-65/-29 -107/-64/-29 -35/-170/-29 -36/-171/-29 
f -79/-63/-29 -80/-65/-29 -36/-171/-29 -33/-172/-29 
f -108/-62/-29 -79/-63/-29 -33/-172/-29 -34/-169/-29 
f -34/-169/-29 -35/-170/-29 -107/-64/-29 -108/-62/-29 
usemtl Material__26
f -21/-61/-29 -22/-60/-29 -32/-174/-29 -29/-59/-29 
f -20/-58/-29 -21/-61/-29 -29/-59/-29 -30/-176/-29 
f -19/-57/-29 -20/-58/-29 -30/-176/-29 -31/-173/-29 
f -31/-173/-29 -32/-174/-29 -22/-60/-29 -19/-57/-29 
usemtl Material__2097641165
f -18/-56/-8 -81/-55/-8 -109/-54/-8 
usemtl Material__2097632332
f -99/-53/-8 -100/-52/-8 -105/-51/-8 -106/-50/-8 
f -99/-53/-8 -106/-50/-8 -85/-49/-8 -87/-48/-8 
f -87/-48/-8 -89/-47/-8 -91/-46/-8 -93/-45/-8 
f -87/-48/-8 -93/-45/-8 -95/-44/-8 -97/-43/-8 
f -99/-53/-8 -87/-48/-8 -97/-43/-8 
usemtl Material__2097641165
f -17/-42/-7 -16/-41/-10 -15/-40/-27 
f -109/-183/-27 -110/-39/-10 -14/-38/-7 
f -108/-37/-27 -109/-183/-27 -81/-36/-10 -79/-35/-10 
f -13/-34/-31 -12/-33/-32 -111/-32/-32 -83/-31/-31 
f -112/-178/-30 -82/-183/-31 -83/-31/-31 -111/-32/-32 
f -11/-30/-30 -10/-29/-32 -20/-38/-31 -19/-28/-32 
usemtl Material__2097632332
f -9/-27/-50 -8/-26/-50 -7/-25/-50 -6/-24/-50 
f -27/-23/-6 -26/-22/-6 -6/-24/-50 -7/-25/-50 
f -25/-21/-5 -28/-20/-4 -5/-19/-3 -4/-18/-3 
f -28/-17/-9 -27/-16/-2 -7/-15/-2 -8/-14/-2 
f -28/-17/-9 -8/-14/-2 -5/-13/-10 
f -26/-12/-32 -25/-11/-30 -4/-10/-32 -3/-9/-32 
usemtl Material__2097641165
f -14/-190/-35 -2/-8/-35 -11/-7/-35 -19/-6/-35 
f -10/-5/-50 -1/-4/-50 -110/-216/-1 -20/-3/-1 
f -1/-2/-10 -2/-1/-7 -14/-38/-7 -110/-39/-10 
# 84 polygons - 6 triangles

