{
    "asset" : {
        "generator" : "Khronos glTF Blender I/O v1.3.48",
        "version" : "2.0"
    },
    "scene" : 0,
    "scenes" : [
        {
            "name" : "Scene",
            "nodes" : [
                0,
                1,
                2,
                3
            ]
        }
    ],
    "nodes" : [
        {
            "mesh" : 0,
            "name" : "WX_XingBenTi"
        },
        {
            "mesh" : 1,
            "name" : "WX_TaiYangYi",
            "translation" : [
                0,
                0.589752197265625,
                0.06283950805664062
            ]
        },
        {
            "mesh" : 2,
            "name" : "WX_TuiJinQi",
            "translation" : [
                0,
                -1.3789105415344238,
                0
            ]
        },
        {
            "mesh" : 3,
            "name" : "WX_SAR",
            "translation" : [
                0.04984050989151001,
                3.852466344833374,
                -0.149688720703125
            ]
        }
    ],
    "materials" : [
        {
            "doubleSided" : true,
            "emissiveFactor" : [
                0,
                0,
                0
            ],
            "name" : "WeiXing",
            "pbrMetallicRoughness" : {
                "baseColorFactor" : [
                    0.5882353186607361,
                    0.5882353186607361,
                    0.5882353186607361,
                    1
                ],
                "metallicFactor" : 1,
                "roughnessFactor" : 0.858578622341156
            }
        }
    ],
    "meshes" : [
        {
            "name" : "\u7f51\u683c.001",
            "primitives" : [
                {
                    "attributes" : {
                        "POSITION" : 0,
                        "NORMAL" : 1,
                        "TEXCOORD_0" : 2
                    },
                    "indices" : 3,
                    "material" : 0
                }
            ]
        },
        {
            "name" : "\u7f51\u683c.002",
            "primitives" : [
                {
                    "attributes" : {
                        "POSITION" : 4,
                        "NORMAL" : 5,
                        "TEXCOORD_0" : 6
                    },
                    "indices" : 7,
                    "material" : 0
                }
            ]
        },
        {
            "name" : "\u7f51\u683c.003",
            "primitives" : [
                {
                    "attributes" : {
                        "POSITION" : 8,
                        "NORMAL" : 9,
                        "TEXCOORD_0" : 10
                    },
                    "indices" : 11,
                    "material" : 0
                }
            ]
        },
        {
            "name" : "\u7f51\u683c.004",
            "primitives" : [
                {
                    "attributes" : {
                        "POSITION" : 12,
                        "NORMAL" : 13,
                        "TEXCOORD_0" : 14
                    },
                    "indices" : 15,
                    "material" : 0
                }
            ]
        }
    ],
    "accessors" : [
        {
            "bufferView" : 0,
            "componentType" : 5126,
            "count" : 518,
            "max" : [
                1.2294204235076904,
                2.6505370140075684,
                1.484004020690918
            ],
            "min" : [
                -1.2294206619262695,
                -5.589215490431343e-08,
                -1.2814292907714844
            ],
            "type" : "VEC3"
        },
        {
            "bufferView" : 1,
            "componentType" : 5126,
            "count" : 518,
            "type" : "VEC3"
        },
        {
            "bufferView" : 2,
            "componentType" : 5126,
            "count" : 518,
            "type" : "VEC2"
        },
        {
            "bufferView" : 3,
            "componentType" : 5123,
            "count" : 1188,
            "type" : "SCALAR"
        },
        {
            "bufferView" : 4,
            "componentType" : 5126,
            "count" : 256,
            "max" : [
                12.495277404785156,
                0.042022705078125,
                1.2031859159469604
            ],
            "min" : [
                -12.495277404785156,
                -0.042022705078125,
                -1.2031861543655396
            ],
            "type" : "VEC3"
        },
        {
            "bufferView" : 5,
            "componentType" : 5126,
            "count" : 256,
            "type" : "VEC3"
        },
        {
            "bufferView" : 6,
            "componentType" : 5126,
            "count" : 256,
            "type" : "VEC2"
        },
        {
            "bufferView" : 7,
            "componentType" : 5123,
            "count" : 504,
            "type" : "SCALAR"
        },
        {
            "bufferView" : 8,
            "componentType" : 5126,
            "count" : 1434,
            "max" : [
                1.5815787315368652,
                0.9834685325622559,
                1.5815784931182861
            ],
            "min" : [
                -1.5815787315368652,
                -0.9834685325622559,
                -1.5815789699554443
            ],
            "type" : "VEC3"
        },
        {
            "bufferView" : 9,
            "componentType" : 5126,
            "count" : 1434,
            "type" : "VEC3"
        },
        {
            "bufferView" : 10,
            "componentType" : 5126,
            "count" : 1434,
            "type" : "VEC2"
        },
        {
            "bufferView" : 11,
            "componentType" : 5123,
            "count" : 4416,
            "type" : "SCALAR"
        },
        {
            "bufferView" : 12,
            "componentType" : 5126,
            "count" : 751,
            "max" : [
                1.2822380065917969,
                1.518970251083374,
                1.1590701341629028
            ],
            "min" : [
                -1.2822380065917969,
                -1.518970251083374,
                -1.1590701341629028
            ],
            "type" : "VEC3"
        },
        {
            "bufferView" : 13,
            "componentType" : 5126,
            "count" : 751,
            "type" : "VEC3"
        },
        {
            "bufferView" : 14,
            "componentType" : 5126,
            "count" : 751,
            "type" : "VEC2"
        },
        {
            "bufferView" : 15,
            "componentType" : 5123,
            "count" : 1953,
            "type" : "SCALAR"
        }
    ],
    "bufferViews" : [
        {
            "buffer" : 0,
            "byteLength" : 6216,
            "byteOffset" : 0
        },
        {
            "buffer" : 0,
            "byteLength" : 6216,
            "byteOffset" : 6216
        },
        {
            "buffer" : 0,
            "byteLength" : 4144,
            "byteOffset" : 12432
        },
        {
            "buffer" : 0,
            "byteLength" : 2376,
            "byteOffset" : 16576
        },
        {
            "buffer" : 0,
            "byteLength" : 3072,
            "byteOffset" : 18952
        },
        {
            "buffer" : 0,
            "byteLength" : 3072,
            "byteOffset" : 22024
        },
        {
            "buffer" : 0,
            "byteLength" : 2048,
            "byteOffset" : 25096
        },
        {
            "buffer" : 0,
            "byteLength" : 1008,
            "byteOffset" : 27144
        },
        {
            "buffer" : 0,
            "byteLength" : 17208,
            "byteOffset" : 28152
        },
        {
            "buffer" : 0,
            "byteLength" : 17208,
            "byteOffset" : 45360
        },
        {
            "buffer" : 0,
            "byteLength" : 11472,
            "byteOffset" : 62568
        },
        {
            "buffer" : 0,
            "byteLength" : 8832,
            "byteOffset" : 74040
        },
        {
            "buffer" : 0,
            "byteLength" : 9012,
            "byteOffset" : 82872
        },
        {
            "buffer" : 0,
            "byteLength" : 9012,
            "byteOffset" : 91884
        },
        {
            "buffer" : 0,
            "byteLength" : 6008,
            "byteOffset" : 100896
        },
        {
            "buffer" : 0,
            "byteLength" : 3906,
            "byteOffset" : 106904
        }
    ],
    "buffers" : [
        {
            "byteLength" : 110812,
            "uri" : "data:application/octet-stream;base64,"
        }
    ]
}
