{
    "asset" : {
        "generator" : "Khronos glTF Blender I/O v1.3.48",
        "version" : "2.0"
    },
    "scene" : 0,
    "scenes" : [
        {
            "name" : "Scene",
            "nodes" : [
                5
            ]
        }
    ],
    "nodes" : [
        {
            "mesh" : 0,
            "name" : "AM84_026_00",
            "translation" : [
                69.980712890625,
                -25.07080078125,
                28.966644287109375
            ]
        },
        {
            "mesh" : 1,
            "name" : "AM84_026_01",
            "translation" : [
                598.0841064453125,
                -25.07086181640625,
                29.423675537109375
            ]
        },
        {
            "mesh" : 2,
            "name" : "AM84_026_02",
            "translation" : [
                -0.0036773681640625,
                174.92242431640625,
                130.44711303710938
            ]
        },
        {
            "mesh" : 3,
            "name" : "AM84_026_03",
            "translation" : [
                45.26008605957031,
                -65.79723358154297,
                79.67269897460938
            ]
        },
        {
            "mesh" : 4,
            "name" : "AM84_026_04",
            "translation" : [
                -0.003662109375,
                28.109153747558594,
                -24.234527587890625
            ]
        },
        {
            "children" : [
                0,
                1,
                2,
                3,
                4
            ],
            "name" : "Group043",
            "translation" : [
                0,
                7.62939453125e-06,
                0.000152587890625
            ]
        }
    ],
    "materials" : [
        {
            "doubleSided" : true,
            "emissiveFactor" : [
                0,
                0,
                0
            ],
            "name" : "AM84_026_Metal.002",
            "pbrMetallicRoughness" : {
                "baseColorFactor" : [
                    0.2823529541492462,
                    0.3137255012989044,
                    0.33725491166114807,
                    1
                ],
                "metallicFactor" : 1,
                "roughnessFactor" : 0.5858941078186035
            }
        },
        {
            "doubleSided" : true,
            "emissiveFactor" : [
                0,
                0,
                0
            ],
            "name" : "AM84_026_Solar_Batery.003",
            "pbrMetallicRoughness" : {
                "baseColorFactor" : [
                    0.09019608050584793,
                    0.09019608050584793,
                    0.27843138575553894,
                    1
                ],
                "metallicFactor" : 1,
                "roughnessFactor" : 0.6136254668235779
            }
        },
        {
            "doubleSided" : true,
            "emissiveFactor" : [
                0,
                0,
                0
            ],
            "name" : "AM84_026_Satelite.002",
            "pbrMetallicRoughness" : {
                "baseColorFactor" : [
                    1,
                    1,
                    1,
                    1
                ],
                "metallicFactor" : 1,
                "roughnessFactor" : 0.800000011920929
            }
        },
        {
            "doubleSided" : true,
            "emissiveFactor" : [
                0,
                0,
                0
            ],
            "name" : "AM84_026_Gold_alu.002",
            "pbrMetallicRoughness" : {
                "baseColorFactor" : [
                    0.6941176652908325,
                    0.5882353186607361,
                    0.16470588743686676,
                    1
                ],
                "metallicFactor" : 1,
                "roughnessFactor" : 0.7171573638916016
            }
        },
        {
            "doubleSided" : true,
            "emissiveFactor" : [
                0,
                0,
                0
            ],
            "name" : "01 - Default.002",
            "pbrMetallicRoughness" : {
                "baseColorFactor" : [
                    0.803921639919281,
                    0.803921639919281,
                    0.803921639919281,
                    1
                ],
                "metallicFactor" : 1,
                "roughnessFactor" : 0.858578622341156
            }
        },
        {
            "doubleSided" : true,
            "emissiveFactor" : [
                0,
                0,
                0
            ],
            "name" : "02 - Default.002",
            "pbrMetallicRoughness" : {
                "baseColorFactor" : [
                    0.05882353335618973,
                    0.05882353335618973,
                    0.05882353335618973,
                    1
                ],
                "metallicFactor" : 1,
                "roughnessFactor" : 0.858578622341156
            }
        }
    ],
    "meshes" : [
        {
            "name" : "\u7f51\u683c.015",
            "primitives" : [
                {
                    "attributes" : {
                        "POSITION" : 0,
                        "NORMAL" : 1,
                        "TEXCOORD_0" : 2
                    },
                    "indices" : 3,
                    "material" : 0
                }
            ]
        },
        {
            "name" : "\u7f51\u683c.014",
            "primitives" : [
                {
                    "attributes" : {
                        "POSITION" : 4,
                        "NORMAL" : 5,
                        "TEXCOORD_0" : 6
                    },
                    "indices" : 7,
                    "material" : 1
                }
            ]
        },
        {
            "name" : "\u7f51\u683c.011",
            "primitives" : [
                {
                    "attributes" : {
                        "POSITION" : 8,
                        "NORMAL" : 9,
                        "TEXCOORD_0" : 10
                    },
                    "indices" : 11,
                    "material" : 2
                }
            ]
        },
        {
            "name" : "\u7f51\u683c.012",
            "primitives" : [
                {
                    "attributes" : {
                        "POSITION" : 12,
                        "NORMAL" : 13,
                        "TEXCOORD_0" : 14
                    },
                    "indices" : 15,
                    "material" : 3
                }
            ]
        },
        {
            "name" : "\u7f51\u683c.013",
            "primitives" : [
                {
                    "attributes" : {
                        "POSITION" : 16,
                        "NORMAL" : 17,
                        "TEXCOORD_0" : 18
                    },
                    "indices" : 19,
                    "material" : 4
                },
                {
                    "attributes" : {
                        "POSITION" : 20,
                        "NORMAL" : 21,
                        "TEXCOORD_0" : 22
                    },
                    "indices" : 23,
                    "material" : 5
                }
            ]
        }
    ],
    "accessors" : [
        {
            "bufferView" : 0,
            "componentType" : 5126,
            "count" : 8325,
            "max" : [
                729.2044067382812,
                177.5214080810547,
                133.38523864746094
            ],
            "min" : [
                -869.1658935546875,
                -123.03642272949219,
                -175.5653533935547
            ],
            "type" : "VEC3"
        },
        {
            "bufferView" : 1,
            "componentType" : 5126,
            "count" : 8325,
            "type" : "VEC3"
        },
        {
            "bufferView" : 2,
            "componentType" : 5126,
            "count" : 8325,
            "type" : "VEC2"
        },
        {
            "bufferView" : 3,
            "componentType" : 5123,
            "count" : 28446,
            "type" : "SCALAR"
        },
        {
            "bufferView" : 4,
            "componentType" : 5126,
            "count" : 192,
            "max" : [
                400,
                56.97129821777344,
                0.7872409224510193
            ],
            "min" : [
                -1596.168212890625,
                -56.971534729003906,
                -1.7874140739440918
            ],
            "type" : "VEC3"
        },
        {
            "bufferView" : 5,
            "componentType" : 5126,
            "count" : 192,
            "type" : "VEC3"
        },
        {
            "bufferView" : 6,
            "componentType" : 5126,
            "count" : 192,
            "type" : "VEC2"
        },
        {
            "bufferView" : 7,
            "componentType" : 5123,
            "count" : 288,
            "type" : "SCALAR"
        },
        {
            "bufferView" : 8,
            "componentType" : 5126,
            "count" : 2206,
            "max" : [
                109.75741577148438,
                71.39073181152344,
                86.01831817626953
            ],
            "min" : [
                -109.7717514038086,
                -421.2355651855469,
                -346.91253662109375
            ],
            "type" : "VEC3"
        },
        {
            "bufferView" : 9,
            "componentType" : 5126,
            "count" : 2206,
            "type" : "VEC3"
        },
        {
            "bufferView" : 10,
            "componentType" : 5126,
            "count" : 2206,
            "type" : "VEC2"
        },
        {
            "bufferView" : 11,
            "componentType" : 5123,
            "count" : 11472,
            "type" : "SCALAR"
        },
        {
            "bufferView" : 12,
            "componentType" : 5126,
            "count" : 462,
            "max" : [
                24.6589412689209,
                44.38489532470703,
                53.873146057128906
            ],
            "min" : [
                -37.662960052490234,
                -51.5531005859375,
                -19.48048973083496
            ],
            "type" : "VEC3"
        },
        {
            "bufferView" : 13,
            "componentType" : 5126,
            "count" : 462,
            "type" : "VEC3"
        },
        {
            "bufferView" : 14,
            "componentType" : 5126,
            "count" : 462,
            "type" : "VEC2"
        },
        {
            "bufferView" : 15,
            "componentType" : 5123,
            "count" : 1725,
            "type" : "SCALAR"
        },
        {
            "bufferView" : 16,
            "componentType" : 5126,
            "count" : 23,
            "max" : [
                70,
                49.497474670410156,
                148.492431640625
            ],
            "min" : [
                -70,
                -148.492431640625,
                -49.497474670410156
            ],
            "type" : "VEC3"
        },
        {
            "bufferView" : 17,
            "componentType" : 5126,
            "count" : 23,
            "type" : "VEC3"
        },
        {
            "bufferView" : 18,
            "componentType" : 5126,
            "count" : 23,
            "type" : "VEC2"
        },
        {
            "bufferView" : 19,
            "componentType" : 5123,
            "count" : 45,
            "type" : "SCALAR"
        },
        {
            "bufferView" : 20,
            "componentType" : 5126,
            "count" : 155,
            "max" : [
                70,
                49.497474670410156,
                164.04876708984375
            ],
            "min" : [
                -70,
                -164.04876708984375,
                -49.497474670410156
            ],
            "type" : "VEC3"
        },
        {
            "bufferView" : 21,
            "componentType" : 5126,
            "count" : 155,
            "type" : "VEC3"
        },
        {
            "bufferView" : 22,
            "componentType" : 5126,
            "count" : 155,
            "type" : "VEC2"
        },
        {
            "bufferView" : 23,
            "componentType" : 5123,
            "count" : 207,
            "type" : "SCALAR"
        }
    ],
    "bufferViews" : [
        {
            "buffer" : 0,
            "byteLength" : 99900,
            "byteOffset" : 0
        },
        {
            "buffer" : 0,
            "byteLength" : 99900,
            "byteOffset" : 99900
        },
        {
            "buffer" : 0,
            "byteLength" : 66600,
            "byteOffset" : 199800
        },
        {
            "buffer" : 0,
            "byteLength" : 56892,
            "byteOffset" : 266400
        },
        {
            "buffer" : 0,
            "byteLength" : 2304,
            "byteOffset" : 323292
        },
        {
            "buffer" : 0,
            "byteLength" : 2304,
            "byteOffset" : 325596
        },
        {
            "buffer" : 0,
            "byteLength" : 1536,
            "byteOffset" : 327900
        },
        {
            "buffer" : 0,
            "byteLength" : 576,
            "byteOffset" : 329436
        },
        {
            "buffer" : 0,
            "byteLength" : 26472,
            "byteOffset" : 330012
        },
        {
            "buffer" : 0,
            "byteLength" : 26472,
            "byteOffset" : 356484
        },
        {
            "buffer" : 0,
            "byteLength" : 17648,
            "byteOffset" : 382956
        },
        {
            "buffer" : 0,
            "byteLength" : 22944,
            "byteOffset" : 400604
        },
        {
            "buffer" : 0,
            "byteLength" : 5544,
            "byteOffset" : 423548
        },
        {
            "buffer" : 0,
            "byteLength" : 5544,
            "byteOffset" : 429092
        },
        {
            "buffer" : 0,
            "byteLength" : 3696,
            "byteOffset" : 434636
        },
        {
            "buffer" : 0,
            "byteLength" : 3450,
            "byteOffset" : 438332
        },
        {
            "buffer" : 0,
            "byteLength" : 276,
            "byteOffset" : 441784
        },
        {
            "buffer" : 0,
            "byteLength" : 276,
            "byteOffset" : 442060
        },
        {
            "buffer" : 0,
            "byteLength" : 184,
            "byteOffset" : 442336
        },
        {
            "buffer" : 0,
            "byteLength" : 90,
            "byteOffset" : 442520
        },
        {
            "buffer" : 0,
            "byteLength" : 1860,
            "byteOffset" : 442612
        },
        {
            "buffer" : 0,
            "byteLength" : 1860,
            "byteOffset" : 444472
        },
        {
            "buffer" : 0,
            "byteLength" : 1240,
            "byteOffset" : 446332
        },
        {
            "buffer" : 0,
            "byteLength" : 414,
            "byteOffset" : 447572
        }
    ],
    "buffers" : [
        {
            "byteLength" : 447988,
            "uri" : "data:application/octet-stream;base64,"
        }
    ]
}
